<svg xmlns="http://www.w3.org/2000/svg" viewBox="0 0 64.99874 52.00076" aria-labelledby="icon-contact"><defs><style>.icon-contact-color1{fill:url(#linear-gradient);}.icon-contact-color2{fill:#fff;}</style><linearGradient id="linear-gradient" x1="7.999" y1="40.001" x2="72.998" y2="40.001" gradientUnits="userSpaceOnUse"><stop offset="0" stop-color="#177bcb"/><stop offset="1" stop-color="#9f00b9"/></linearGradient></defs><title id="icon-contact">Contact</title><path id="a" class="icon-contact-color1" d="M20.083 47a4.99 4.99 0 0 0-5.296 4.135c.964-1.085 5.074-1.491 1.951.95-.788.615-1.974.712-2.946 1.592-2.548 2.311-2.234 3.011-2.747 5.897 3.823-3.633 5.307.536.43 2.747-1.589.898-2.714 1.266-3.476.779 4.584 4.621 8.286-.498 10.062-1.662 2.698-1.678 2.449 2.587-.795 3.526 1.953.141 5.02-1.078 6.455-2.033 1.511-1.04 5.256-5.12 4.038-9.729a10.9 10.9 0 0 0-4.402-5.424 7.796 7.796 0 0 0-3.275-.779zm32.69-21.994a3.992 3.992 0 1 1-2.179.791 3.904 3.904 0 0 1 2.179-.791zm6.389-9.983c-11.133 2.371-19.898 9.865-26.805 17.599-.911-.011-2.741-.134-4.474-.268-1.924-.144-3.618-.301-3.618-.301a.958.958 0 0 0-.722.234l-10.197 8.933a1.102 1.102 0 0 0-.164 1.405l1.677 2.208a1.019 1.019 0 0 0 1.185.336l7.794-3.446.758.468-1.086 1.439a1.087 1.087 0 0 0-.032 1.238l7.498 10.069a1.035 1.035 0 0 0 1.185.301c.543-.217 1.118-.439 1.677-.668l.198.869-5.361 6.69a1.044 1.044 0 0 0 0 1.239l1.644 2.241a1.023 1.023 0 0 0 1.349.234l11.216-7.561a1.054 1.054 0 0 0 .427-.67s.308-1.689.692-3.613c.345-1.734.751-3.557.987-4.449 9.188-4.672 18.621-11.218 23.878-21.479a1.116 1.116 0 0 0 .132-.435l-9.41-12.613a1.029 1.029 0 0 0-.428 0zm11.532-1.021c-.811-.005-1.913 0-3.112.032a65.893 65.893 0 0 0-6.582.463l8.591 11.504c.729-1.709 1.55-4.17 2.205-6.33.355-1.17.632-2.236.842-3.032.108-.395.2-.741.26-.989l.064-.329.033-.166v-.165c-.005-.081.054-.198-.195-.527-.244-.329-.372-.335-.454-.363l-.162-.032-.195-.034h-.324c-.249-.01-.566-.031-.972-.031z" transform="translate(-7.999 -14)"/><circle class="icon-contact-color2" cx="45.001" cy="15" r="4"/></svg>