<?xml version="1.0" encoding="utf-8"?>
<!-- Generated by IcoMoon.io -->
<!DOCTYPE svg PUBLIC "-//W3C//DTD SVG 1.1//EN" "http://www.w3.org/Graphics/SVG/1.1/DTD/svg11.dtd">
<svg version="1.1" xmlns="http://www.w3.org/2000/svg" width="32" height="32" viewBox="0 0 32 32">
<title>contact</title>
<path d="M7.732 24.971l0.308-0.149 0.006 0.005c0.165-0.078 0.723-0.337 1.458-0.593 0.649-0.205 1.226-0.358 1.779-0.476l0.535-0.111c0.268-0.049 0.449-0.076 0.502-0.083 0.025-0.081 0.254-0.814 0.335-1.648 0.079-0.844-0.041-1.343-0.052-1.381-0.005-0.003-0.533-0.288-0.712-0.602l-0.026-0.053c-0.175-0.417-0.294-2.299-0.295-2.318l-0.688-0.333-0.459-2.026v-0.745l0.459-0.522c-0.002-0.008-0.25-1.133-0.25-2.374 0-0.979 0.181-1.89 0.258-2.236l0.031-0.139 0.101-0.102c0.338-0.342 1.22-1.183 2.11-1.585 1.091-0.495 2.175-0.5 2.187-0.5 0.008 0 0.073 0.001 0.179 0.007 0.109-0.006 0.174-0.007 0.18-0.007 0.011 0 1.098 0.005 2.189 0.5 0.889 0.402 1.771 1.243 2.11 1.585l0.101 0.102 0.032 0.139c0.078 0.345 0.259 1.256 0.259 2.236 0 1.21-0.236 2.313-0.25 2.375l0.459 0.521-0.013 0.858-0.445 1.912-0.688 0.333c-0.002 0.019-0.122 1.902-0.286 2.3l-0.026 0.055c-0.184 0.324-0.698 0.605-0.719 0.616l-0.003 0.002c-0.005 0.018-0.131 0.521-0.049 1.382 0.079 0.828 0.306 1.559 0.334 1.645l0 0.001c-0 0 0.192 0.026 0.488 0.080l0.549 0.114c0.552 0.117 1.125 0.268 1.752 0.467 0.706 0.245 1.227 0.48 1.452 0.586l0.003-0.003 0.338 0.169c-2.047 1.877-4.773 3.024-7.763 3.024-2.992 0-5.72-1.149-7.768-3.029zM27.933 17.796c0.019-0.183 0.032-0.366 0.043-0.55 0.002-0.032 0.006-0.064 0.008-0.096 0.011-0.215 0.017-0.432 0.017-0.65 0-6.904-5.596-12.5-12.5-12.5s-12.5 5.596-12.5 12.5c0 0.218 0.006 0.434 0.017 0.649 0.002 0.026 0.005 0.052 0.006 0.079 0.011 0.19 0.025 0.378 0.045 0.567 0 0.003 0.001 0.007 0.001 0.011 0.653 6.29 5.97 11.195 12.432 11.195 6.454 0 11.765-4.893 12.43-11.172 0.001-0.011 0.003-0.021 0.003-0.032z"></path>
</svg>
