<?xml version="1.0" encoding="utf-8"?>
<!-- Generated by IcoMoon.io -->
<!DOCTYPE svg PUBLIC "-//W3C//DTD SVG 1.1//EN" "http://www.w3.org/Graphics/SVG/1.1/DTD/svg11.dtd">
<svg version="1.1" xmlns="http://www.w3.org/2000/svg" width="32" height="32" viewBox="0 0 32 32">
<title>doc-layers-2</title>
<path d="M16 19c-0.074 0-0.149-0.017-0.217-0.050l-14.5-7c-0.172-0.084-0.282-0.258-0.282-0.45s0.11-0.367 0.282-0.45l14.5-7c0.137-0.067 0.298-0.067 0.435 0l14.5 7c0.172 0.084 0.282 0.258 0.282 0.45s-0.11 0.367-0.282 0.45l-14.5 7c-0.069 0.034-0.143 0.050-0.218 0.050z"></path>
<path d="M30.717 16.050l-3.096-1.495-10.969 5.295c-0.206 0.099-0.429 0.149-0.652 0.149s-0.446-0.049-0.652-0.149l-10.969-5.296-3.096 1.494c-0.173 0.084-0.283 0.259-0.283 0.45s0.11 0.367 0.283 0.451l14.5 7c0.069 0.033 0.143 0.049 0.217 0.049s0.149-0.017 0.217-0.049l14.5-7c0.173-0.084 0.282-0.259 0.282-0.451s-0.11-0.366-0.282-0.45z"></path>
<path d="M30.717 21.050l-3.096-1.494-10.969 5.296c-0.206 0.099-0.429 0.149-0.652 0.149s-0.446-0.049-0.652-0.149l-10.969-5.296-3.096 1.494c-0.173 0.084-0.283 0.259-0.283 0.45s0.11 0.367 0.283 0.451l14.5 7c0.069 0.033 0.143 0.049 0.217 0.049s0.149-0.017 0.217-0.049l14.5-7c0.173-0.084 0.282-0.259 0.282-0.451s-0.11-0.366-0.282-0.45z"></path>
</svg>
