<?xml version="1.0" encoding="utf-8"?>
<!-- Generated by IcoMoon.io -->
<!DOCTYPE svg PUBLIC "-//W3C//DTD SVG 1.1//EN" "http://www.w3.org/Graphics/SVG/1.1/DTD/svg11.dtd">
<svg version="1.1" xmlns="http://www.w3.org/2000/svg" width="32" height="32" viewBox="0 0 32 32">
<title>doc-documents</title>
<path d="M23 7c0 0.551 0.448 1 1 1h4c0-0.133-0.053-0.26-0.146-0.354l-4.5-4.5c-0.094-0.094-0.221-0.147-0.354-0.147v4z"></path>
<path d="M24 9c-1.103 0-2-0.897-2-2v-4h-9c-1.103 0-2 0.897-2 2v2h5c0.401 0 0.777 0.156 1.061 0.439l4.5 4.5c0.284 0.283 0.439 0.66 0.439 1.060v12h4c1.103 0 2-0.897 2-2v-14h-4z"></path>
<path d="M16 12c0 0.552 0.448 1 1 1h4c0-0.133-0.052-0.259-0.146-0.354l-4.5-4.5c-0.093-0.094-0.221-0.146-0.354-0.146v4z"></path>
<path d="M17 14c-1.103 0-2-0.897-2-2v-4h-9c-1.103 0-2 0.897-2 2v18c0 1.103 0.897 2 2 2h13c1.103 0 2-0.897 2-2v-14h-4z"></path>
</svg>
