<?xml version="1.0" encoding="utf-8"?>
<!-- Generated by IcoMoon.io -->
<!DOCTYPE svg PUBLIC "-//W3C//DTD SVG 1.1//EN" "http://www.w3.org/Graphics/SVG/1.1/DTD/svg11.dtd">
<svg version="1.1" xmlns="http://www.w3.org/2000/svg" width="32" height="32" viewBox="0 0 32 32">
<title>doc-filing-2</title>
<path d="M11.5 9c0.277 0 0.5 0.224 0.5 0.5 0 1.93 1.571 3.5 3.5 3.5s3.5-1.57 3.5-3.5c0-0.276 0.224-0.5 0.5-0.5h9.235l-4.85-5.82c-0.096-0.114-0.236-0.18-0.384-0.18h-16c-0.149 0-0.289 0.066-0.385 0.18l-4.85 5.82h9.235z"></path>
<path d="M19.972 19c-0.25 2.247-2.16 4-4.472 4s-4.223-1.753-4.473-4h-9.027v8.5c0 0.276 0.224 0.5 0.5 0.5h26c0.276 0 0.5-0.224 0.5-0.5v-8.5h-9.028z"></path>
<path d="M12.040 19c0.244 1.694 1.7 3 3.46 3s3.216-1.306 3.46-3h-6.92z"></path>
<path d="M19.972 10c-0.25 2.247-2.16 4-4.472 4s-4.223-1.753-4.473-4h-9.027v8h27v-8h-9.028z"></path>
</svg>
