<?xml version="1.0" encoding="utf-8"?>
<!-- Generated by IcoMoon.io -->
<!DOCTYPE svg PUBLIC "-//W3C//DTD SVG 1.1//EN" "http://www.w3.org/Graphics/SVG/1.1/DTD/svg11.dtd">
<svg version="1.1" xmlns="http://www.w3.org/2000/svg" width="32" height="32" viewBox="0 0 32 32">
<title>doc-cut-2</title>
<path d="M16 8c0 0.552 0.448 1 1 1h5c0-0.133-0.053-0.26-0.146-0.354l-5.5-5.5c-0.093-0.094-0.221-0.147-0.354-0.147v5z"></path>
<path d="M15.724 22.447c-0.072 0.036-0.148 0.053-0.223 0.053-0.184 0-0.36-0.101-0.447-0.276-0.123-0.247-0.024-0.547 0.223-0.671l6.095-3.053-6.095-3.053c-0.247-0.123-0.347-0.424-0.223-0.671s0.424-0.348 0.671-0.223l6.276 3.144v-7.697h-5c-1.102 0-2-0.897-2-2v-5h-11c-1.103 0-2 0.897-2 2v23c0 1.103 0.897 2 2 2h16c1.103 0 2-0.897 2-2v-8.697l-6.276 3.144z"></path>
<path d="M27.871 23.452c-0.174 0.302-0.471 0.434-0.691 0.492-0.513 0.136-1.151 0.020-1.708-0.308-0.933-0.549-1.405-1.563-1.032-2.214 0.174-0.302 0.471-0.434 0.691-0.492 0.494-0.13 1.107-0.023 1.651 0.282l0.064 0.032c0.928 0.55 1.398 1.56 1.024 2.209zM24.441 15.578c-0.374-0.65 0.098-1.665 1.032-2.214 0.558-0.329 1.196-0.444 1.708-0.308 0.219 0.058 0.517 0.191 0.69 0.492 0.374 0.649-0.096 1.66-1.024 2.21l-0.058 0.029c-0.546 0.306-1.16 0.415-1.657 0.284-0.219-0.058-0.517-0.191-0.691-0.492zM27.347 20.376c-0.009-0.006-0.020-0.009-0.029-0.015-0-0-0.001-0.001-0.002-0.001l-0.011-0.006c-0.117-0.067-0.236-0.125-0.357-0.179l-3.346-1.675 3.303-1.655c0.079-0.034 0.155-0.077 0.233-0.116l0.177-0.089c0.002-0 0.003-0.002 0.004-0.003 0.009-0.005 0.017-0.008 0.026-0.013 1.42-0.835 2.044-2.438 1.391-3.575-0.269-0.469-0.732-0.809-1.302-0.96-0.775-0.204-1.676-0.055-2.471 0.413-1.419 0.835-2.044 2.438-1.39 3.574 0.213 0.372 0.55 0.657 0.963 0.837l-2.050 1.027-0.487-0.244v1.607l0.487-0.244 2.050 1.027c-0.413 0.18-0.75 0.466-0.963 0.837-0.653 1.136-0.029 2.739 1.39 3.575 0.562 0.331 1.177 0.503 1.763 0.503 0.243 0 0.481-0.029 0.708-0.090 0.57-0.151 1.032-0.491 1.302-0.96 0.652-1.136 0.029-2.739-1.391-3.575z"></path>
</svg>
