<?xml version="1.0" encoding="utf-8"?>
<!-- Generated by IcoMoon.io -->
<!DOCTYPE svg PUBLIC "-//W3C//DTD SVG 1.1//EN" "http://www.w3.org/Graphics/SVG/1.1/DTD/svg11.dtd">
<svg version="1.1" xmlns="http://www.w3.org/2000/svg" width="32" height="32" viewBox="0 0 32 32">
<title>doc-cut</title>
<path d="M13.766 13.191l3.787 2.696 11.237-7.998c0.218-0.154 0.276-0.452 0.132-0.679-0.045-0.071-1.129-1.746-2.97-2.13-1.070-0.223-2.159 0.032-3.235 0.759-1.48 1-5.221 4.143-8.951 7.354z"></path>
<path d="M10.133 9.919c-0.29 0.466-0.759 0.78-1.355 0.907-0.191 0.041-0.393 0.061-0.598 0.061-0.759 0-1.595-0.271-2.337-0.77-1.63-1.098-2.318-2.899-1.567-4.103 0.29-0.466 0.759-0.779 1.355-0.907 0.896-0.192 1.993 0.074 2.936 0.708 1.63 1.098 2.318 2.899 1.567 4.103zM28.79 25.112l-18.101-12.884c0.45-0.306 0.829-0.697 1.116-1.159 1.334-2.148 0.368-5.279-2.155-6.984-1.375-0.929-2.987-1.285-4.426-0.977-1.119 0.24-2.049 0.874-2.616 1.788-0.411 0.662-0.607 1.415-0.607 2.191 0.001 1.583 0.817 3.261 2.295 4.447 0.616 0.546 15.128 13.402 18.422 15.628 1.076 0.727 2.164 0.983 3.235 0.759 1.841-0.384 2.925-2.060 2.97-2.131 0.144-0.226 0.085-0.524-0.131-0.678z"></path>
<path d="M8.565 27.183c-0.741 0.499-1.577 0.77-2.337 0.77-0.207 0-0.407-0.020-0.599-0.061-0.596-0.127-1.064-0.441-1.355-0.907-0.75-1.203-0.062-3.005 1.567-4.102 0.942-0.634 2.041-0.899 2.935-0.709 0.596 0.127 1.065 0.441 1.355 0.907 0.751 1.203 0.062 3.005-1.568 4.102zM11.805 21.93c-0.287-0.462-0.666-0.853-1.116-1.159l1.459-1.038c-1.018-0.879-2.018-1.748-2.96-2.57-2.648 2.314-4.67 4.105-4.892 4.302-1.478 1.186-2.295 2.864-2.295 4.447 0 0.776 0.196 1.529 0.607 2.191 0.568 0.914 1.497 1.549 2.617 1.789 1.438 0.308 3.050-0.049 4.425-0.977 2.523-1.705 3.489-4.837 2.155-6.985z"></path>
</svg>
