<?xml version="1.0" encoding="utf-8"?>
<!-- Generated by IcoMoon.io -->
<!DOCTYPE svg PUBLIC "-//W3C//DTD SVG 1.1//EN" "http://www.w3.org/Graphics/SVG/1.1/DTD/svg11.dtd">
<svg version="1.1" xmlns="http://www.w3.org/2000/svg" width="32" height="32" viewBox="0 0 32 32">
<title>doc-layers</title>
<path d="M18.5 30h-14c-0.277 0-0.5-0.224-0.5-0.5v-18c0-0.277 0.223-0.5 0.5-0.5h14c0.276 0 0.5 0.223 0.5 0.5v18c0 0.276-0.224 0.5-0.5 0.5z"></path>
<path d="M22.5 7h-14c-0.277 0-0.5 0.223-0.5 0.5v2.5h10.5c0.828 0 1.5 0.671 1.5 1.5v14.5h2.5c0.276 0 0.5-0.224 0.5-0.5v-18c0-0.277-0.224-0.5-0.5-0.5z"></path>
<path d="M26.5 3h-14c-0.277 0-0.5 0.224-0.5 0.5v2.5h10.5c0.828 0 1.5 0.671 1.5 1.5v14.5h2.5c0.276 0 0.5-0.224 0.5-0.5v-18c0-0.276-0.224-0.5-0.5-0.5z"></path>
</svg>
