<?xml version="1.0" encoding="utf-8"?>
<!-- Generated by IcoMoon.io -->
<!DOCTYPE svg PUBLIC "-//W3C//DTD SVG 1.1//EN" "http://www.w3.org/Graphics/SVG/1.1/DTD/svg11.dtd">
<svg version="1.1" xmlns="http://www.w3.org/2000/svg" width="32" height="32" viewBox="0 0 32 32">
<title>films</title>
<path d="M7 16h17v-10h-17z"></path>
<path d="M7 27h17v-10h-17z"></path>
<path d="M25 18h3v-2.999h-3z"></path>
<path d="M25 22h3v-2.999h-3z"></path>
<path d="M25 26h3v-2.999h-3z"></path>
<path d="M25 14h3v-2.999h-3z"></path>
<path d="M25 10h3v-3h-3z"></path>
<path d="M3 18h3v-2.999h-3z"></path>
<path d="M3 22h3v-2.999h-3z"></path>
<path d="M3 26h3v-2.999h-3z"></path>
<path d="M3 14h3v-2.999h-3z"></path>
<path d="M3 10h3v-3h-3z"></path>
</svg>
