<?xml version="1.0" encoding="utf-8"?>
<!-- Generated by IcoMoon.io -->
<!DOCTYPE svg PUBLIC "-//W3C//DTD SVG 1.1//EN" "http://www.w3.org/Graphics/SVG/1.1/DTD/svg11.dtd">
<svg version="1.1" xmlns="http://www.w3.org/2000/svg" width="32" height="32" viewBox="0 0 32 32">
<title>flags</title>
<path d="M26 4l-0.746 0.607c-0.024 0.013-2.421 1.351-4.754 1.351-1.206 0-3.102-0.505-4.935-0.993-1.944-0.518-3.779-0.965-5.065-0.965-2.527 0-4.121 0.593-4.188 0.62l-0.312 0.127v24.254h1v-11.169c0.49-0.258 1.821-0.831 3.958-0.831 0.844 0 2.431 0.426 4.113 0.877 1.982 0.532 4.032 1.081 5.387 1.081 2.558 0 5.104-0.907 5.212-0.946l0.331-0.119v-13.893z"></path>
</svg>
