<?xml version="1.0" encoding="utf-8"?>
<!-- Generated by IcoMoon.io -->
<!DOCTYPE svg PUBLIC "-//W3C//DTD SVG 1.1//EN" "http://www.w3.org/Graphics/SVG/1.1/DTD/svg11.dtd">
<svg version="1.1" xmlns="http://www.w3.org/2000/svg" width="32" height="32" viewBox="0 0 32 32">
<title>gen-cogs</title>
<path d="M12 23c-1.657 0-3-1.343-3-3s1.343-3 3-3c1.656 0 3 1.343 3 3s-1.344 3-3 3zM20.77 18h-1.214c-0.181-0.688-0.462-1.352-0.838-1.983l0.733-0.734c0.475-0.475 0.475-1.246 0-1.721l-1.014-1.014c-0.46-0.46-1.262-0.459-1.721 0.001l-0.733 0.733c-0.639-0.383-1.293-0.661-1.983-0.841v-1.21c0-0.667-0.582-1.23-1.27-1.23h-1.461c-0.688 0-1.27 0.563-1.27 1.23v1.21c-0.693 0.181-1.347 0.458-1.983 0.841l-0.734-0.733c-0.458-0.459-1.259-0.46-1.721 0l-1.013 1.014c-0.231 0.229-0.357 0.535-0.357 0.861s0.127 0.631 0.356 0.861l0.732 0.734c-0.381 0.635-0.657 1.29-0.838 1.983h-1.213c-0.667 0-1.23 0.581-1.23 1.269v1.462c0 0.688 0.564 1.27 1.23 1.27h1.214c0.181 0.689 0.462 1.353 0.838 1.983l-0.734 0.733c-0.474 0.474-0.475 1.247 0 1.721l1.014 1.014c0.46 0.459 1.261 0.459 1.721-0l0.735-0.734c0.635 0.381 1.289 0.658 1.982 0.838v1.213c0 0.668 0.582 1.231 1.27 1.231h1.461c0.688 0 1.27-0.564 1.27-1.231v-1.215c0.691-0.182 1.354-0.462 1.982-0.837l0.735 0.735c0.459 0.459 1.26 0.46 1.721 0l1.013-1.014c0.23-0.23 0.357-0.535 0.357-0.86s-0.127-0.631-0.357-0.861l-0.732-0.733c0.381-0.634 0.657-1.288 0.837-1.983h1.213c0.667 0 1.23-0.581 1.23-1.27v-1.462c0-0.688-0.564-1.269-1.23-1.269z"></path>
<path d="M23.5 11c-1.381 0-2.5-1.12-2.5-2.5s1.119-2.5 2.5-2.5c1.381 0 2.5 1.12 2.5 2.5s-1.119 2.5-2.5 2.5zM29.926 9.891c-0.101-0.242-0.289-0.431-0.532-0.532l-0.618-0.256c0.046-0.406 0.046-0.821-0.002-1.225l0.512-0.212c0.495-0.205 0.73-0.775 0.526-1.271l-0.361-0.872c-0.2-0.483-0.784-0.729-1.27-0.526l-0.509 0.212c-0.255-0.323-0.544-0.614-0.866-0.869l0.255-0.615c0.207-0.499-0.030-1.075-0.531-1.283l-0.888-0.367c-0.488-0.203-1.081 0.042-1.283 0.531l-0.255 0.615c-0.407-0.047-0.82-0.046-1.226 0.002l-0.212-0.511c-0.201-0.482-0.785-0.726-1.27-0.526l-0.873 0.361c-0.495 0.205-0.73 0.775-0.526 1.269l0.212 0.511c-0.323 0.255-0.613 0.544-0.867 0.866l-0.616-0.255c-0.489-0.203-1.080 0.043-1.282 0.531l-0.369 0.888c-0.101 0.242-0.101 0.51 0 0.752s0.289 0.431 0.53 0.53l0.618 0.256c-0.047 0.408-0.046 0.821 0.001 1.225l-0.511 0.211c-0.495 0.204-0.731 0.774-0.526 1.271l0.361 0.873c0.2 0.482 0.777 0.728 1.271 0.525l0.51-0.211c0.253 0.322 0.543 0.611 0.866 0.867l-0.256 0.617c-0.206 0.5 0.032 1.075 0.531 1.283l0.889 0.368c0.119 0.050 0.246 0.075 0.375 0.075 0.399 0 0.755-0.238 0.907-0.606l0.256-0.618c0.407 0.046 0.82 0.046 1.224-0.001l0.212 0.512c0.201 0.483 0.79 0.726 1.27 0.525l0.873-0.361c0.241-0.1 0.427-0.287 0.526-0.527s0.099-0.504-0-0.742l-0.211-0.511c0.322-0.254 0.612-0.543 0.867-0.866l0.616 0.255c0.49 0.204 1.081-0.043 1.282-0.531l0.368-0.887c0.101-0.242 0.102-0.508 0.002-0.751z"></path>
</svg>
