<?xml version="1.0" encoding="utf-8"?>
<!-- Generated by IcoMoon.io -->
<!DOCTYPE svg PUBLIC "-//W3C//DTD SVG 1.1//EN" "http://www.w3.org/Graphics/SVG/1.1/DTD/svg11.dtd">
<svg version="1.1" xmlns="http://www.w3.org/2000/svg" width="32" height="32" viewBox="0 0 32 32">
<title>gen-information</title>
<path d="M15.5 14c-0.276 0-0.5 0.224-0.5 0.5v9c0 0.276 0.224 0.5 0.5 0.5s0.5-0.224 0.5-0.5v-9c0-0.276-0.224-0.5-0.5-0.5z"></path>
<path d="M15.5 10c-0.276 0-0.5 0.224-0.5 0.5s0.224 0.5 0.5 0.5c0.276 0 0.5-0.224 0.5-0.5s-0.224-0.5-0.5-0.5z"></path>
<path d="M15.5 12c-0.827 0-1.5-0.673-1.5-1.5s0.673-1.5 1.5-1.5c0.827 0 1.5 0.673 1.5 1.5s-0.673 1.5-1.5 1.5v0zM17 23.5c0 0.827-0.673 1.5-1.5 1.5s-1.5-0.673-1.5-1.5v-9c0-0.827 0.673-1.5 1.5-1.5s1.5 0.673 1.5 1.5v9zM15.5 3c-7.444 0-13.5 6.056-13.5 13.5s6.056 13.5 13.5 13.5c7.444 0 13.5-6.056 13.5-13.5s-6.056-13.5-13.5-13.5v0z"></path>
</svg>
