<?xml version="1.0" encoding="utf-8"?>
<!-- Generated by IcoMoon.io -->
<!DOCTYPE svg PUBLIC "-//W3C//DTD SVG 1.1//EN" "http://www.w3.org/Graphics/SVG/1.1/DTD/svg11.dtd">
<svg version="1.1" xmlns="http://www.w3.org/2000/svg" width="32" height="32" viewBox="0 0 32 32">
<title>gen-lifebelt</title>
<path d="M9.56 19.133c-0.357-0.805-0.56-1.695-0.56-2.633 0-0.94 0.204-1.83 0.562-2.636l-6.244-3.178c-0.845 1.761-1.319 3.733-1.319 5.814 0 2.096 0.48 4.082 1.336 5.854l6.224-3.221z"></path>
<path d="M10.038 12.984c0.528-0.819 1.235-1.508 2.066-2.018l-3.357-6.147c-2.059 1.196-3.774 2.918-4.96 4.984l6.252 3.182z"></path>
<path d="M12.991 10.503c0.772-0.323 1.62-0.504 2.509-0.504 0.877 0 1.712 0.176 2.475 0.491l3.379-6.154c-1.772-0.857-3.758-1.337-5.854-1.337-2.104 0-4.096 0.485-5.872 1.346l3.363 6.157z"></path>
<path d="M18.865 10.947c0.854 0.518 1.578 1.225 2.114 2.066l6.245-3.193c-1.189-2.079-2.915-3.813-4.989-5.012l-3.37 6.138z"></path>
<path d="M12.158 22.067c-0.855-0.515-1.582-1.217-2.122-2.055l-6.229 3.223c1.186 2.051 2.895 3.762 4.944 4.95l3.405-6.118z"></path>
<path d="M21.453 13.894c0.35 0.798 0.547 1.678 0.547 2.606 0 0.918-0.192 1.79-0.536 2.582l6.221 3.224c0.842-1.759 1.315-3.729 1.315-5.806 0-2.073-0.471-4.038-1.31-5.796l-6.238 3.189z"></path>
<path d="M18.041 22.484c-0.78 0.332-1.639 0.516-2.54 0.516-0.867 0-1.693-0.173-2.45-0.482l-3.417 6.139c1.775 0.86 3.765 1.343 5.867 1.343 2.106 0 4.101-0.486 5.88-1.351l-3.34-6.165z"></path>
<path d="M20.993 19.964c-0.526 0.831-1.233 1.534-2.069 2.053l3.337 6.16c2.058-1.197 3.772-2.92 4.956-4.986l-6.224-3.227z"></path>
<path d="M26.847 25.522c-0.34 1.109-1.215 1.985-2.325 2.325-0.509 0.405-1.046 0.779-1.607 1.114 0.194 0.025 0.389 0.039 0.585 0.039 2.482 0 4.5-2.018 4.5-4.5 0-0.196-0.014-0.392-0.039-0.585-0.335 0.562-0.709 1.098-1.114 1.608z"></path>
<path d="M6.478 27.847c-1.109-0.34-1.985-1.215-2.324-2.325-0.405-0.509-0.779-1.046-1.114-1.608-0.025 0.194-0.039 0.389-0.039 0.585 0 2.482 2.018 4.5 4.5 4.5 0.196 0 0.391-0.014 0.585-0.039-0.562-0.335-1.098-0.709-1.607-1.114z"></path>
<path d="M24.522 5.153c1.109 0.34 1.985 1.216 2.325 2.325 0.405 0.51 0.779 1.046 1.114 1.607 0.025-0.194 0.039-0.389 0.039-0.585 0-2.482-2.018-4.5-4.5-4.5-0.196 0-0.392 0.013-0.585 0.039 0.562 0.335 1.098 0.708 1.608 1.114z"></path>
<path d="M4.153 7.478c0.34-1.109 1.216-1.985 2.325-2.324 0.51-0.405 1.046-0.779 1.607-1.114-0.194-0.025-0.389-0.039-0.585-0.039-2.481 0-4.5 2.019-4.5 4.5 0 0.196 0.014 0.392 0.039 0.585 0.336-0.562 0.708-1.098 1.114-1.607z"></path>
</svg>
