<?xml version="1.0" encoding="utf-8"?>
<!-- Generated by IcoMoon.io -->
<!DOCTYPE svg PUBLIC "-//W3C//DTD SVG 1.1//EN" "http://www.w3.org/Graphics/SVG/1.1/DTD/svg11.dtd">
<svg version="1.1" xmlns="http://www.w3.org/2000/svg" width="32" height="32" viewBox="0 0 32 32">
<title>gen-jewel</title>
<path d="M15.53 28.67l-6.381-17.67h-6.899l13.351 17.8c0.001 0.001 0.001 0.001 0.001 0.002-0.030-0.040-0.054-0.084-0.072-0.131z"></path>
<path d="M21.788 11h-11.576l5.788 16.028z"></path>
<path d="M22.851 11l-6.381 17.67c-0.017 0.048-0.042 0.092-0.072 0.131 0-0 0.001-0 0.002-0.002l13.35-17.8h-6.899z"></path>
<path d="M15.634 3.16c0.188-0.204 0.544-0.204 0.732 0l5.633 6.067v-6.226h-12v6.226l5.634-6.067z"></path>
<path d="M10.646 10h10.707l-5.354-5.765z"></path>
<path d="M23 3.293v6.707h6.707z"></path>
<path d="M9 3.293l-6.707 6.707h6.707z"></path>
</svg>
