<?xml version="1.0" encoding="utf-8"?>
<!-- Generated by IcoMoon.io -->
<!DOCTYPE svg PUBLIC "-//W3C//DTD SVG 1.1//EN" "http://www.w3.org/Graphics/SVG/1.1/DTD/svg11.dtd">
<svg version="1.1" xmlns="http://www.w3.org/2000/svg" width="32" height="32" viewBox="0 0 32 32">
<title>gen-cog</title>
<path d="M15.5 21c-2.486 0-4.5-2.014-4.5-4.5s2.014-4.5 4.5-4.5c2.486 0 4.5 2.014 4.5 4.5s-2.014 4.5-4.5 4.5zM27.5 14h-1.803c-0.258-1.047-0.681-2.063-1.238-2.977l1.108-1.107c0.576-0.578 0.576-1.517-0-2.094l-1.388-1.388c-0.56-0.559-1.535-0.559-2.095 0l-1.107 1.107c-0.927-0.569-1.927-0.986-2.977-1.242v-1.798c0-0.827-0.673-1.5-1.5-1.5h-2c-0.827 0-1.5 0.673-1.5 1.5v1.798c-1.053 0.257-2.053 0.673-2.978 1.242l-1.107-1.107c-0.559-0.559-1.534-0.559-2.094 0l-1.388 1.388c-0.279 0.28-0.434 0.651-0.434 1.047s0.154 0.768 0.434 1.047l1.107 1.107c-0.566 0.924-0.981 1.922-1.238 2.978h-1.802c-0.827 0-1.5 0.673-1.5 1.5v2c0 0.827 0.673 1.5 1.5 1.5h1.803c0.258 1.049 0.681 2.064 1.237 2.977l-1.107 1.107c-0.577 0.578-0.577 1.517 0 2.095l1.388 1.387c0.559 0.559 1.535 0.561 2.095 0l1.107-1.107c0.922 0.565 1.921 0.98 2.976 1.236v1.805c0 0.827 0.673 1.5 1.5 1.5h2c0.827 0 1.5-0.673 1.5-1.5v-1.805c1.050-0.258 2.065-0.68 2.977-1.236l1.107 1.107c0.559 0.559 1.535 0.561 2.095 0l1.387-1.387c0.279-0.279 0.434-0.651 0.434-1.047s-0.154-0.767-0.434-1.047l-1.105-1.105c0.565-0.922 0.98-1.921 1.236-2.978h1.802c0.827 0 1.5-0.673 1.5-1.5v-2c0-0.827-0.673-1.5-1.5-1.5z"></path>
</svg>
