<?xml version="1.0" encoding="utf-8"?>
<!-- Generated by IcoMoon.io -->
<!DOCTYPE svg PUBLIC "-//W3C//DTD SVG 1.1//EN" "http://www.w3.org/Graphics/SVG/1.1/DTD/svg11.dtd">
<svg version="1.1" xmlns="http://www.w3.org/2000/svg" width="32" height="32" viewBox="0 0 32 32">
<title>gen-alarm</title>
<path d="M27.5 25c-1.378 0-2.5-1.122-2.502-2.538l-0.5-6.498c-0.442-6.175-3.343-10.317-7.499-10.889v-1.575c0-0.276-0.224-0.5-0.5-0.5h-1c-0.276 0-0.5 0.224-0.5 0.5v1.575c-4.155 0.572-7.058 4.715-7.498 10.887l-0.502 6.538c0 1.378-1.122 2.5-2.5 2.5-0.276 0-0.5 0.224-0.5 0.5s0.224 0.5 0.5 0.5h23c0.276 0 0.5-0.224 0.5-0.5s-0.224-0.5-0.5-0.5z"></path>
<path d="M12.54 27c0.692 1.195 1.981 2 3.46 2s2.768-0.805 3.46-2h-6.921z"></path>
</svg>
