<?xml version="1.0" encoding="utf-8"?>
<!-- Generated by IcoMoon.io -->
<!DOCTYPE svg PUBLIC "-//W3C//DTD SVG 1.1//EN" "http://www.w3.org/Graphics/SVG/1.1/DTD/svg11.dtd">
<svg version="1.1" xmlns="http://www.w3.org/2000/svg" width="32" height="32" viewBox="0 0 32 32">
<title>gen-alarm-off</title>
<path d="M12.54 27c0.692 1.195 1.981 2 3.46 2s2.768-0.805 3.46-2h-6.921z"></path>
<path d="M27.5 25c-1.378 0-2.5-1.122-2.502-2.538l-0.5-6.498c-0.163-2.273-0.663-4.264-1.433-5.909l-15.945 15.945h20.379c0.276 0 0.5-0.224 0.5-0.5s-0.224-0.5-0.5-0.5z"></path>
<path d="M5.707 26l20.146-20.146c0.195-0.195 0.195-0.512 0-0.707s-0.512-0.196-0.707 0l-3.119 3.119c-1.289-1.787-3.008-2.913-5.027-3.191v-1.575c0-0.276-0.224-0.5-0.5-0.5h-1c-0.276 0-0.5 0.224-0.5 0.5v1.575c-4.155 0.572-7.058 4.715-7.498 10.887l-0.502 6.538c0 0.36-0.080 0.701-0.218 1.011l-1.271 1.271c-0.309 0.138-0.651 0.218-1.011 0.218-0.276 0-0.5 0.224-0.5 0.5 0 0.215 0.137 0.395 0.327 0.465l-1.181 1.181c-0.196 0.195-0.196 0.512 0 0.707 0.098 0.098 0.225 0.146 0.353 0.146s0.256-0.049 0.353-0.146l1.853-1.854z"></path>
</svg>
