<?xml version="1.0" encoding="utf-8"?>
<!-- Generated by IcoMoon.io -->
<!DOCTYPE svg PUBLIC "-//W3C//DTD SVG 1.1//EN" "http://www.w3.org/Graphics/SVG/1.1/DTD/svg11.dtd">
<svg version="1.1" xmlns="http://www.w3.org/2000/svg" width="32" height="32" viewBox="0 0 32 32">
<title>ios-more</title>
<path d="M5.5 19c-1.378 0-2.5-1.122-2.5-2.5s1.122-2.5 2.5-2.5c1.378 0 2.5 1.121 2.5 2.5s-1.122 2.5-2.5 2.5v0z"></path>
<path d="M15.5 19c-1.379 0-2.5-1.122-2.5-2.5s1.121-2.5 2.5-2.5c1.378 0 2.5 1.121 2.5 2.5s-1.122 2.5-2.5 2.5z"></path>
<path d="M25.5 19c-1.378 0-2.5-1.122-2.5-2.5s1.122-2.5 2.5-2.5c1.378 0 2.5 1.121 2.5 2.5s-1.122 2.5-2.5 2.5z"></path>
</svg>
