<?xml version="1.0" encoding="utf-8"?>
<!-- Generated by IcoMoon.io -->
<!DOCTYPE svg PUBLIC "-//W3C//DTD SVG 1.1//EN" "http://www.w3.org/Graphics/SVG/1.1/DTD/svg11.dtd">
<svg version="1.1" xmlns="http://www.w3.org/2000/svg" width="32" height="32" viewBox="0 0 32 32">
<title>ios-trash</title>
<path d="M19 26.016l-0.999-0.031 0.5-16 0.999 0.031-0.5 16zM15 26v-16h1v16h-1zM12.001 26.016l-0.5-16 0.999-0.031 0.5 16.001-0.999 0.031zM12 6c0-0.551 0.448-1 1-1h5c0.551 0 1 0.449 1 1v1h-7v-1zM20 7v-1c0-1.103-0.897-2-2-2h-5c-1.103 0-2 0.897-2 2v1h-5v1h1.037l1.466 19.059c0.137 1.16 0.94 1.939 1.996 1.941h10.001c1.029-0.001 1.868-0.818 1.998-1.962l1.465-19.038h1.037v-1h-5z"></path>
</svg>
