<?xml version="1.0" encoding="utf-8"?>
<!-- Generated by IcoMoon.io -->
<!DOCTYPE svg PUBLIC "-//W3C//DTD SVG 1.1//EN" "http://www.w3.org/Graphics/SVG/1.1/DTD/svg11.dtd">
<svg version="1.1" xmlns="http://www.w3.org/2000/svg" width="32" height="32" viewBox="0 0 32 32">
<title>ios-bookmarks</title>
<path d="M15 6.346c-0.537-0.809-1.457-1.346-2.5-1.346h-7.5c-1.103 0-2 0.898-2 2.001v16c0 1.104 0.897 1.999 2 1.999h8c1.103 0 2 0.898 2 2v-20.654z"></path>
<path d="M16 6.346c0.538-0.809 1.457-1.346 2.5-1.346h7.5c1.103 0 2 0.898 2 2.001v16c0 1.104-0.897 1.999-2 1.999h-8c-1.103 0-2 0.898-2 2v-20.654z"></path>
</svg>
