<?xml version="1.0" encoding="utf-8"?>
<!-- Generated by IcoMoon.io -->
<!DOCTYPE svg PUBLIC "-//W3C//DTD SVG 1.1//EN" "http://www.w3.org/Graphics/SVG/1.1/DTD/svg11.dtd">
<svg version="1.1" xmlns="http://www.w3.org/2000/svg" width="32" height="32" viewBox="0 0 32 32">
<title>ios-keypad</title>
<path d="M6.5 11c-1.93 0-3.5-1.57-3.5-3.5s1.57-3.5 3.5-3.5c1.93 0 3.5 1.571 3.5 3.5s-1.57 3.5-3.5 3.5z"></path>
<path d="M15.5 11c-1.93 0-3.5-1.57-3.5-3.5s1.57-3.5 3.5-3.5c1.93 0 3.5 1.571 3.5 3.5s-1.57 3.5-3.5 3.5z"></path>
<path d="M24.5 11c-1.93 0-3.5-1.57-3.5-3.5s1.57-3.5 3.5-3.5c1.93 0 3.5 1.571 3.5 3.5s-1.57 3.5-3.5 3.5z"></path>
<path d="M6.5 20c-1.93 0-3.5-1.57-3.5-3.5s1.57-3.5 3.5-3.5c1.93 0 3.5 1.57 3.5 3.5s-1.57 3.5-3.5 3.5z"></path>
<path d="M15.5 20c-1.93 0-3.5-1.57-3.5-3.5s1.57-3.5 3.5-3.5c1.93 0 3.5 1.57 3.5 3.5s-1.57 3.5-3.5 3.5z"></path>
<path d="M24.5 20c-1.93 0-3.5-1.57-3.5-3.5s1.57-3.5 3.5-3.5c1.93 0 3.5 1.57 3.5 3.5s-1.57 3.5-3.5 3.5z"></path>
<path d="M6.5 29c-1.93 0-3.5-1.57-3.5-3.5s1.57-3.5 3.5-3.5c1.93 0 3.5 1.57 3.5 3.5s-1.57 3.5-3.5 3.5z"></path>
<path d="M15.5 29c-1.93 0-3.5-1.57-3.5-3.5s1.57-3.5 3.5-3.5c1.93 0 3.5 1.57 3.5 3.5s-1.57 3.5-3.5 3.5z"></path>
<path d="M24.5 29c-1.93 0-3.5-1.57-3.5-3.5s1.57-3.5 3.5-3.5c1.93 0 3.5 1.57 3.5 3.5s-1.57 3.5-3.5 3.5z"></path>
</svg>
