<?xml version="1.0" encoding="utf-8"?>
<!-- Generated by IcoMoon.io -->
<!DOCTYPE svg PUBLIC "-//W3C//DTD SVG 1.1//EN" "http://www.w3.org/Graphics/SVG/1.1/DTD/svg11.dtd">
<svg version="1.1" xmlns="http://www.w3.org/2000/svg" width="32" height="32" viewBox="0 0 32 32">
<title>ios-search</title>
<path d="M4 13.501c0-4.687 3.813-8.5 8.5-8.5s8.5 3.813 8.5 8.5c0 4.687-3.813 8.5-8.5 8.5s-8.5-3.813-8.5-8.5v0zM26.965 26.551l-7.083-7.083c1.322-1.632 2.118-3.708 2.118-5.967 0-5.239-4.262-9.5-9.5-9.5s-9.5 4.261-9.5 9.5c0 5.239 4.261 9.5 9.5 9.5 2.26 0 4.335-0.796 5.968-2.119l7.082 7.082 1.415-1.414z"></path>
<path d="M20 13.5c0 4.142-3.358 7.5-7.5 7.5s-7.5-3.358-7.5-7.5c0-4.142 3.358-7.5 7.5-7.5s7.5 3.358 7.5 7.5z"></path>
</svg>
