<?xml version="1.0" encoding="utf-8"?>
<!-- Generated by IcoMoon.io -->
<!DOCTYPE svg PUBLIC "-//W3C//DTD SVG 1.1//EN" "http://www.w3.org/Graphics/SVG/1.1/DTD/svg11.dtd">
<svg version="1.1" xmlns="http://www.w3.org/2000/svg" width="32" height="32" viewBox="0 0 32 32">
<title>ios-alarms</title>
<path d="M17 19.001h-6v-1h5v-8h1v9zM16 7.001c-6.066 0-11 4.935-11 11s4.934 11 11 11c6.066 0 11-4.934 11-11s-4.934-11-11-11v0z"></path>
<path d="M6.354 28.854l-0.707-0.707 2.829-2.829 0.707 0.707z"></path>
<path d="M25.646 28.854l-2.829-2.829 0.707-0.707 2.829 2.829z"></path>
<path d="M4.352 12.358l-0.287-0.55c-0.374-0.718-0.564-1.495-0.564-2.308 0-2.756 2.243-5 5-5 1.123 0 2.184 0.364 3.069 1.054l0.49 0.381-7.708 6.423z"></path>
<path d="M27.649 12.358l-7.709-6.423 0.489-0.381c0.885-0.689 1.947-1.054 3.070-1.054 2.757 0 5 2.244 5 5 0 0.801-0.195 1.599-0.564 2.308l-0.287 0.55z"></path>
</svg>
