<?xml version="1.0" encoding="utf-8"?>
<!-- Generated by IcoMoon.io -->
<!DOCTYPE svg PUBLIC "-//W3C//DTD SVG 1.1//EN" "http://www.w3.org/Graphics/SVG/1.1/DTD/svg11.dtd">
<svg version="1.1" xmlns="http://www.w3.org/2000/svg" width="32" height="32" viewBox="0 0 32 32">
<title>pre-board</title>
<path d="M24 14.5c0 0.277-0.224 0.5-0.5 0.5s-0.5-0.223-0.5-0.5v-1.793l-3.146 3.146c-0.195 0.195-0.512 0.195-0.707 0l-1.646-1.646-4.646 4.646c-0.195 0.195-0.511 0.195-0.707 0l-1.646-1.646-2.646 2.646c-0.098 0.098-0.226 0.146-0.354 0.146s-0.256-0.049-0.354-0.146c-0.196-0.195-0.196-0.512 0-0.707l3-3c0.195-0.195 0.511-0.195 0.707 0l1.646 1.646 4.646-4.646c0.195-0.195 0.512-0.195 0.707 0l1.646 1.646 2.793-2.793h-1.793c-0.276 0-0.5-0.223-0.5-0.5s0.224-0.5 0.5-0.5h3c0.065 0 0.13 0.013 0.191 0.039 0.122 0.050 0.22 0.148 0.27 0.271 0.026 0.061 0.038 0.126 0.038 0.191v3zM26.5 6h-22c-0.277 0-0.5 0.223-0.5 0.5v18c0 0.276 0.223 0.5 0.5 0.5h10.5v0.293l-3.854 3.854c-0.195 0.195-0.195 0.512 0 0.707 0.098 0.098 0.226 0.146 0.354 0.146s0.256-0.049 0.354-0.146l3.646-3.646 3.646 3.646c0.098 0.098 0.226 0.146 0.354 0.146s0.256-0.049 0.354-0.146c0.195-0.195 0.195-0.512 0-0.707l-3.854-3.854v-0.293h10.5c0.276 0 0.5-0.224 0.5-0.5v-18c0-0.277-0.224-0.5-0.5-0.5v0z"></path>
<path d="M28.5 4h-11.5v-0.5c0-0.276-0.224-0.5-0.5-0.5h-2c-0.277 0-0.5 0.224-0.5 0.5v0.5h-11.5c-0.276 0-0.5 0.223-0.5 0.5s0.224 0.5 0.5 0.5h26c0.276 0 0.5-0.223 0.5-0.5s-0.224-0.5-0.5-0.5z"></path>
</svg>
