<?xml version="1.0" encoding="utf-8"?>
<!-- Generated by IcoMoon.io -->
<!DOCTYPE svg PUBLIC "-//W3C//DTD SVG 1.1//EN" "http://www.w3.org/Graphics/SVG/1.1/DTD/svg11.dtd">
<svg version="1.1" xmlns="http://www.w3.org/2000/svg" width="32" height="32" viewBox="0 0 32 32">
<title>pre-computer-charts</title>
<path d="M21 10.293v-2.253c-0.591 0.085-1.134 0.318-1.592 0.661l1.592 1.592z"></path>
<path d="M21.707 12l-2.299 2.299c0.584 0.438 1.307 0.701 2.092 0.701 1.759 0 3.216-1.306 3.46-3h-3.253z"></path>
<path d="M18.701 13.592l2.092-2.092-2.092-2.092c-0.438 0.585-0.701 1.307-0.701 2.092s0.263 1.508 0.701 2.092z"></path>
<path d="M22 11h2.96c-0.221-1.53-1.43-2.739-2.96-2.96v2.96z"></path>
<path d="M6 7.5c0-0.276 0.223-0.5 0.5-0.5s0.5 0.224 0.5 0.5v7.5h1v-4.5c0-0.276 0.223-0.5 0.5-0.5s0.5 0.224 0.5 0.5v4.5h1v-5.5c0-0.276 0.223-0.5 0.5-0.5s0.5 0.224 0.5 0.5v5.5h1v-2.5c0-0.276 0.223-0.5 0.5-0.5s0.5 0.224 0.5 0.5v2.5h0.5c0.277 0 0.5 0.224 0.5 0.5s-0.223 0.5-0.5 0.5h-7c-0.277 0-0.5-0.224-0.5-0.5v-8zM18.319 8.319c0.003-0.002 0.006-0.004 0.009-0.006 0.814-0.811 1.936-1.313 3.173-1.313 2.482 0 4.5 2.019 4.5 4.5s-2.018 4.5-4.5 4.5c-1.237 0-2.358-0.502-3.173-1.313-0.003-0.002-0.006-0.004-0.009-0.006s-0.003-0.006-0.006-0.009c-0.811-0.814-1.313-1.935-1.313-3.172s0.502-2.358 1.313-3.172c0.003-0.003 0.003-0.007 0.006-0.009v0zM30 18v-12c0-1.103-0.897-2-2-2h-24c-1.103 0-2 0.897-2 2v12h28z"></path>
<path d="M16 22c-0.551 0-1-0.448-1-1s0.449-1 1-1c0.551 0 1 0.448 1 1s-0.449 1-1 1v0zM2 19v3c0 1.103 0.897 2 2 2h24c1.103 0 2-0.897 2-2v-3h-28z"></path>
<path d="M19.985 27.379l-0.595-2.378h-6.78l-0.595 2.378c-0.005 0.020-0.001 0.040-0.003 0.061s-0.012 0.039-0.012 0.061c0 0.021 0.005 0.042 0.007 0.064 0.001 0.007 0.001 0.014 0.002 0.020 0.045 0.787 0.694 1.416 1.492 1.416h5c0.799 0 1.447-0.628 1.491-1.416 0.002-0.007 0.002-0.014 0.002-0.020 0.001-0.022 0.006-0.043 0.006-0.064s-0.009-0.041-0.012-0.061 0.002-0.040-0.003-0.061z"></path>
</svg>
