<?xml version="1.0" encoding="utf-8"?>
<!-- Generated by IcoMoon.io -->
<!DOCTYPE svg PUBLIC "-//W3C//DTD SVG 1.1//EN" "http://www.w3.org/Graphics/SVG/1.1/DTD/svg11.dtd">
<svg version="1.1" xmlns="http://www.w3.org/2000/svg" width="32" height="32" viewBox="0 0 32 32">
<title>pre-board-pie</title>
<path d="M11.276 11.983c-0.796 0.954-1.276 2.18-1.276 3.517s0.48 2.563 1.276 3.517l3.517-3.517-3.517-3.517z"></path>
<path d="M11.983 19.724c0.954 0.796 2.18 1.276 3.517 1.276 2.864 0 5.221-2.201 5.474-5h-5.268l-3.724 3.724z"></path>
<path d="M15 10.025c-1.142 0.104-2.183 0.555-3.017 1.251l3.017 3.017v-4.268z"></path>
<path d="M15.5 22c-1.785 0-3.404-0.724-4.579-1.892-0.005-0.005-0.012-0.006-0.017-0.012s-0.007-0.012-0.011-0.017c-1.169-1.176-1.893-2.794-1.893-4.579s0.723-3.404 1.893-4.579c0.005-0.005 0.007-0.012 0.011-0.017s0.011-0.007 0.017-0.011c1.176-1.168 2.794-1.893 4.579-1.893 3.584 0 6.5 2.916 6.5 6.5s-2.916 6.5-6.5 6.5zM26.5 6h-22c-0.277 0-0.5 0.224-0.5 0.5v18c0 0.276 0.223 0.5 0.5 0.5h10.5v0.293l-3.854 3.854c-0.195 0.195-0.195 0.512 0 0.707 0.098 0.098 0.226 0.146 0.354 0.146s0.256-0.049 0.354-0.146l3.646-3.646 3.646 3.646c0.098 0.098 0.226 0.146 0.354 0.146s0.256-0.049 0.354-0.146c0.195-0.195 0.195-0.512 0-0.707l-3.854-3.854v-0.293h10.5c0.276 0 0.5-0.224 0.5-0.5v-18c0-0.276-0.224-0.5-0.5-0.5z"></path>
<path d="M16 10.025v4.974h4.974c-0.238-2.634-2.34-4.736-4.974-4.974z"></path>
<path d="M28.5 4h-11.5v-0.5c0-0.276-0.224-0.5-0.5-0.5h-2c-0.277 0-0.5 0.224-0.5 0.5v0.5h-11.5c-0.276 0-0.5 0.224-0.5 0.5s0.224 0.5 0.5 0.5h26c0.276 0 0.5-0.224 0.5-0.5s-0.224-0.5-0.5-0.5z"></path>
</svg>
