<?xml version="1.0" encoding="utf-8"?>
<!-- Generated by IcoMoon.io -->
<!DOCTYPE svg PUBLIC "-//W3C//DTD SVG 1.1//EN" "http://www.w3.org/Graphics/SVG/1.1/DTD/svg11.dtd">
<svg version="1.1" xmlns="http://www.w3.org/2000/svg" width="32" height="32" viewBox="0 0 32 32">
<title>pre-doc-graph</title>
<path d="M20 8c0 0.552 0.448 1 1 1h5c0-0.133-0.052-0.26-0.146-0.354l-5.5-5.5c-0.093-0.094-0.221-0.147-0.354-0.147v5z"></path>
<path d="M22.5 20h-14c-0.277 0-0.5-0.224-0.5-0.5s0.223-0.5 0.5-0.5h14c0.276 0 0.5 0.224 0.5 0.5s-0.224 0.5-0.5 0.5v0zM22.5 23h-14c-0.277 0-0.5-0.224-0.5-0.5s0.223-0.5 0.5-0.5h14c0.276 0 0.5 0.224 0.5 0.5s-0.224 0.5-0.5 0.5v0zM19.5 26h-11c-0.277 0-0.5-0.224-0.5-0.5s0.223-0.5 0.5-0.5h11c0.276 0 0.5 0.224 0.5 0.5s-0.224 0.5-0.5 0.5v0zM9 7.5c0-0.276 0.223-0.5 0.5-0.5s0.5 0.224 0.5 0.5v7.5h1v-4.5c0-0.276 0.223-0.5 0.5-0.5s0.5 0.224 0.5 0.5v4.5h1v-5.5c0-0.276 0.223-0.5 0.5-0.5s0.5 0.224 0.5 0.5v5.5h1v-2.5c0-0.276 0.223-0.5 0.5-0.5s0.5 0.224 0.5 0.5v2.5h0.5c0.276 0 0.5 0.224 0.5 0.5s-0.224 0.5-0.5 0.5h-7c-0.277 0-0.5-0.224-0.5-0.5v-8zM21 10c-1.103 0-2-0.897-2-2v-5h-12c-1.103 0-2 0.897-2 2v23c0 1.103 0.897 2 2 2h17c1.103 0 2-0.897 2-2v-18h-5z"></path>
</svg>
