<?xml version="1.0" encoding="utf-8"?>
<!-- Generated by IcoMoon.io -->
<!DOCTYPE svg PUBLIC "-//W3C//DTD SVG 1.1//EN" "http://www.w3.org/Graphics/SVG/1.1/DTD/svg11.dtd">
<svg version="1.1" xmlns="http://www.w3.org/2000/svg" width="32" height="32" viewBox="0 0 32 32">
<title>pre-chart-up</title>
<path d="M26 13.5c0 0.277-0.224 0.5-0.5 0.5s-0.5-0.223-0.5-0.5v-1.793l-4.146 4.146c-0.195 0.195-0.512 0.195-0.707 0l-1.646-1.646-5.646 5.646c-0.195 0.195-0.511 0.195-0.707 0l-1.646-1.647-3.646 3.646c-0.196 0.195-0.511 0.195-0.707 0s-0.196-0.511 0-0.706l4-4c0.195-0.195 0.511-0.195 0.707-0l1.646 1.646 5.646-5.646c0.195-0.195 0.512-0.195 0.707 0.001l1.646 1.646 3.793-3.793-1.793-0.001c-0.276 0.001-0.5-0.223-0.5-0.5s0.224-0.499 0.5-0.5h3c0.064 0 0.13 0.014 0.191 0.039 0.122 0.050 0.219 0.148 0.27 0.271 0.026 0.061 0.039 0.126 0.039 0.191v3zM30 27.5l-0-23c0-0.276-0.224-0.5-0.5-0.5h-27c-0.276 0.001-0.5 0.224-0.5 0.501v22.999c0 0.276 0.224 0.5 0.5 0.5h27c0.276 0 0.5-0.224 0.5-0.5v0z"></path>
</svg>
