<?xml version="1.0" encoding="utf-8"?>
<!-- Generated by IcoMoon.io -->
<!DOCTYPE svg PUBLIC "-//W3C//DTD SVG 1.1//EN" "http://www.w3.org/Graphics/SVG/1.1/DTD/svg11.dtd">
<svg version="1.1" xmlns="http://www.w3.org/2000/svg" width="32" height="32" viewBox="0 0 32 32">
<title>pre-venn-diagram</title>
<path d="M20.5 29c-1.25 0-2.434-0.279-3.505-0.765 2.402-1.712 3.98-4.508 4.001-7.671 2.405-1.495 4.098-4.029 4.436-6.973 2.155 1.543 3.567 4.062 3.567 6.909 0 4.687-3.813 8.5-8.5 8.5zM11.5 29c-4.687 0-8.5-3.813-8.5-8.5 0-2.848 1.412-5.366 3.567-6.909 0.339 2.945 2.030 5.478 4.436 6.974 0.021 3.163 1.598 5.959 4.001 7.671-1.070 0.486-2.254 0.765-3.505 0.765zM16 4c4.477 0 8.149 3.482 8.468 7.88-1.209-0.559-2.55-0.88-3.968-0.88-1.628 0-3.16 0.412-4.5 1.136-1.341-0.725-2.873-1.136-4.5-1.136-1.418 0-2.759 0.321-3.969 0.88 0.319-4.397 3.991-7.88 8.469-7.88zM19.969 21.12c-0.202 2.773-1.736 5.177-3.969 6.578-2.232-1.401-3.767-3.805-3.969-6.578 1.209 0.559 2.55 0.88 3.969 0.88s2.759-0.321 3.969-0.88zM16 21c-1.436 0-2.787-0.361-3.975-0.992 0.163-2.828 1.708-5.284 3.975-6.706 2.267 1.422 3.812 3.878 3.975 6.706-1.188 0.631-2.539 0.992-3.975 0.992zM7.525 12.992c1.188-0.631 2.539-0.992 3.975-0.992 1.251 0 2.434 0.278 3.505 0.765-2.139 1.524-3.622 3.907-3.937 6.644-2.030-1.453-3.39-3.773-3.543-6.417zM20.933 19.409c-0.315-2.737-1.798-5.12-3.937-6.644 1.070-0.486 2.254-0.765 3.505-0.765 1.436 0 2.788 0.361 3.975 0.992-0.152 2.644-1.513 4.964-3.543 6.417zM25.497 12.435c-0.035-5.208-4.28-9.435-9.497-9.435s-9.461 4.227-9.496 9.435c-2.698 1.678-4.503 4.661-4.503 8.065 0 5.239 4.261 9.5 9.5 9.5 1.627 0 3.159-0.412 4.5-1.137 1.34 0.724 2.872 1.137 4.5 1.137 5.239 0 9.5-4.261 9.5-9.5 0-3.404-1.805-6.386-4.503-8.065z"></path>
</svg>
