<?xml version="1.0" encoding="utf-8"?>
<!-- Generated by IcoMoon.io -->
<!DOCTYPE svg PUBLIC "-//W3C//DTD SVG 1.1//EN" "http://www.w3.org/Graphics/SVG/1.1/DTD/svg11.dtd">
<svg version="1.1" xmlns="http://www.w3.org/2000/svg" width="32" height="32" viewBox="0 0 32 32">
<title>pre-doc-pie-chart</title>
<path d="M20 8c0 0.552 0.448 1 1 1h5c0-0.133-0.052-0.26-0.146-0.354l-5.5-5.5c-0.093-0.094-0.221-0.147-0.354-0.147v5z"></path>
<path d="M13 11h2.96c-0.22-1.53-1.431-2.739-2.96-2.96v2.96z"></path>
<path d="M12.707 12l-2.299 2.299c0.584 0.438 1.307 0.701 2.092 0.701 1.76 0 3.216-1.306 3.46-3h-3.253z"></path>
<path d="M9.701 13.592l2.092-2.092-2.092-2.092c-0.438 0.585-0.701 1.307-0.701 2.092s0.263 1.508 0.701 2.092z"></path>
<path d="M12 10.293v-2.253c-0.591 0.085-1.134 0.318-1.592 0.661l1.592 1.592z"></path>
<path d="M22.5 20h-14c-0.277 0-0.5-0.224-0.5-0.5s0.223-0.5 0.5-0.5h14c0.276 0 0.5 0.224 0.5 0.5s-0.224 0.5-0.5 0.5v0zM22.5 23h-14c-0.277 0-0.5-0.224-0.5-0.5s0.223-0.5 0.5-0.5h14c0.276 0 0.5 0.224 0.5 0.5s-0.224 0.5-0.5 0.5v0zM19.5 26h-11c-0.277 0-0.5-0.224-0.5-0.5s0.223-0.5 0.5-0.5h11c0.276 0 0.5 0.224 0.5 0.5s-0.224 0.5-0.5 0.5v0zM9.319 8.319c0.002-0.002 0.006-0.004 0.009-0.006 0.814-0.811 1.935-1.313 3.172-1.313 2.482 0 4.5 2.019 4.5 4.5s-2.018 4.5-4.5 4.5c-1.237 0-2.358-0.502-3.172-1.313-0.003-0.002-0.007-0.004-0.009-0.006s-0.004-0.006-0.006-0.008c-0.81-0.815-1.313-1.936-1.313-3.173s0.502-2.358 1.313-3.173c0.002-0.002 0.004-0.006 0.006-0.008v0zM21 10c-1.103 0-2-0.897-2-2v-5h-12c-1.103 0-2 0.897-2 2v23c0 1.103 0.897 2 2 2h17c1.103 0 2-0.897 2-2v-18h-5z"></path>
</svg>
