<?xml version="1.0" encoding="utf-8"?>
<!-- Generated by IcoMoon.io -->
<!DOCTYPE svg PUBLIC "-//W3C//DTD SVG 1.1//EN" "http://www.w3.org/Graphics/SVG/1.1/DTD/svg11.dtd">
<svg version="1.1" xmlns="http://www.w3.org/2000/svg" width="32" height="32" viewBox="0 0 32 32">
<title>pre-chart-down</title>
<path d="M26 21.5c0 0.065-0.013 0.13-0.038 0.191-0.051 0.122-0.148 0.22-0.27 0.27-0.061 0.026-0.126 0.038-0.191 0.038h-3c-0.276 0-0.5-0.224-0.5-0.5s0.224-0.5 0.5-0.5h1.793l-3.793-3.793-1.646 1.646c-0.195 0.195-0.512 0.195-0.707 0l-5.646-5.646-1.646 1.646c-0.195 0.195-0.511 0.195-0.707 0l-4-4c-0.196-0.195-0.196-0.511 0-0.707s0.511-0.195 0.707 0l3.647 3.646 1.646-1.646c0.195-0.195 0.511-0.195 0.707 0l5.646 5.646 1.646-1.646c0.195-0.195 0.512-0.195 0.707 0l4.146 4.146v-1.793c0-0.276 0.224-0.5 0.5-0.5s0.5 0.224 0.5 0.5v3zM29.5 4h-27c-0.276 0-0.5 0.223-0.5 0.5v23c0 0.276 0.224 0.5 0.5 0.5h27c0.276 0 0.5-0.224 0.5-0.5v-23c0-0.277-0.224-0.5-0.5-0.5v0z"></path>
</svg>
