<?xml version="1.0" encoding="utf-8"?>
<!-- Generated by IcoMoon.io -->
<!DOCTYPE svg PUBLIC "-//W3C//DTD SVG 1.1//EN" "http://www.w3.org/Graphics/SVG/1.1/DTD/svg11.dtd">
<svg version="1.1" xmlns="http://www.w3.org/2000/svg" width="32" height="32" viewBox="0 0 32 32">
<title>pre-line-graph</title>
<path d="M11.303 20.041c0.155-0.067 0.333-0.050 0.474 0.044l2.659 1.773 3.71-3.71c0.038-0.038 0.082-0.070 0.13-0.094l4-2c0.162-0.080 0.352-0.068 0.501 0.032l6.223 4.148v-4.732c0-0.091-0.024-0.179-0.072-0.258l-6-10c-0.082-0.138-0.227-0.227-0.387-0.241s-0.317 0.051-0.422 0.173l-5.8 6.765-3.512-0.879-1.893-2.839c-0.098-0.146-0.264-0.226-0.438-0.222-0.175 0.008-0.333 0.107-0.417 0.26l-5.061 9.279v-14.039c0-0.276-0.224-0.5-0.5-0.5s-0.5 0.224-0.5 0.5v19.671l7.303-3.13z"></path>
<path d="M22.464 17.077l-3.668 1.834-3.943 3.942c-0.169 0.169-0.433 0.195-0.63 0.063l-2.774-1.849-7.449 3.192v2.741h-1.5c-0.276 0-0.5 0.224-0.5 0.5s0.224 0.5 0.5 0.5h1.5v1.5c0 0.276 0.224 0.5 0.5 0.5s0.5-0.224 0.5-0.5v-1.5h23.5c0.276 0 0.5-0.224 0.5-0.5v-6.066l-6.536-4.357z"></path>
</svg>
