<?xml version="1.0" encoding="utf-8"?>
<!-- Generated by IcoMoon.io -->
<!DOCTYPE svg PUBLIC "-//W3C//DTD SVG 1.1//EN" "http://www.w3.org/Graphics/SVG/1.1/DTD/svg11.dtd">
<svg version="1.1" xmlns="http://www.w3.org/2000/svg" width="32" height="32" viewBox="0 0 32 32">
<title>pre-col-graph-decrease</title>
<path d="M28.5 28h-2.5v-7.5c0-0.276-0.224-0.5-0.5-0.5h-4c-0.276 0-0.5 0.224-0.5 0.5v7.5h-2v-12.5c0-0.277-0.224-0.5-0.5-0.5h-4c-0.277 0-0.5 0.223-0.5 0.5v12.5h-2v-17.5c0-0.277-0.223-0.5-0.5-0.5h-4c-0.277 0-0.5 0.223-0.5 0.5v17.5h-3v-24.5c0-0.276-0.224-0.5-0.5-0.5s-0.5 0.224-0.5 0.5v25c0 0.276 0.224 0.5 0.5 0.5h25c0.276 0 0.5-0.224 0.5-0.5s-0.224-0.5-0.5-0.5z"></path>
<path d="M26 13.5c0-0.277-0.224-0.5-0.5-0.5s-0.5 0.223-0.5 0.5v2.811c-9.635-9.268-18.029-11.219-18.392-11.3-0.27-0.059-0.537 0.111-0.597 0.38s0.111 0.537 0.38 0.597c0.086 0.019 8.45 1.961 17.883 11.011h-2.774c-0.276 0-0.5 0.224-0.5 0.5s0.224 0.5 0.5 0.5h4c0.066 0 0.13-0.013 0.191-0.038 0.122-0.051 0.22-0.148 0.27-0.27 0.026-0.061 0.038-0.126 0.038-0.191v-4z"></path>
</svg>
