<?xml version="1.0" encoding="utf-8"?>
<!-- Generated by IcoMoon.io -->
<!DOCTYPE svg PUBLIC "-//W3C//DTD SVG 1.1//EN" "http://www.w3.org/Graphics/SVG/1.1/DTD/svg11.dtd">
<svg version="1.1" xmlns="http://www.w3.org/2000/svg" width="32" height="32" viewBox="0 0 32 32">
<title>pre-col-graph</title>
<path d="M28.5 27h-2.5v-21.5c0-0.277-0.224-0.5-0.5-0.5h-3c-0.276 0-0.5 0.223-0.5 0.5v21.5h-1v-13.5c0-0.277-0.224-0.5-0.5-0.5h-3c-0.276 0-0.5 0.223-0.5 0.5v13.5h-1v-17.5c0-0.277-0.223-0.5-0.5-0.5h-3c-0.277 0-0.5 0.223-0.5 0.5v17.5h-1v-9.5c0-0.276-0.223-0.5-0.5-0.5h-3c-0.277 0-0.5 0.224-0.5 0.5v9.5h-2v-23.5c0-0.276-0.223-0.5-0.5-0.5s-0.5 0.224-0.5 0.5v23.5h-1.5c-0.276 0-0.5 0.224-0.5 0.5s0.224 0.5 0.5 0.5h1.5v1.5c0 0.276 0.223 0.5 0.5 0.5s0.5-0.224 0.5-0.5v-1.5h23.5c0.276 0 0.5-0.224 0.5-0.5s-0.224-0.5-0.5-0.5z"></path>
</svg>
