<?xml version="1.0" encoding="utf-8"?>
<!-- Generated by IcoMoon.io -->
<!DOCTYPE svg PUBLIC "-//W3C//DTD SVG 1.1//EN" "http://www.w3.org/Graphics/SVG/1.1/DTD/svg11.dtd">
<svg version="1.1" xmlns="http://www.w3.org/2000/svg" width="32" height="32" viewBox="0 0 32 32">
<title>pre-scatter-graph</title>
<path d="M28.5 27h-23.5v-23.5c0-0.276-0.223-0.5-0.5-0.5s-0.5 0.224-0.5 0.5v23.5h-1.5c-0.276 0-0.5 0.224-0.5 0.5s0.224 0.5 0.5 0.5h1.5v1.5c0 0.276 0.223 0.5 0.5 0.5s0.5-0.224 0.5-0.5v-1.5h23.5c0.276 0 0.5-0.224 0.5-0.5s-0.224-0.5-0.5-0.5z"></path>
<path d="M8.5 23h-0.5v-0.5c0-0.276-0.223-0.5-0.5-0.5s-0.5 0.224-0.5 0.5v0.5h-0.5c-0.277 0-0.5 0.224-0.5 0.5s0.223 0.5 0.5 0.5h0.5v0.5c0 0.276 0.223 0.5 0.5 0.5s0.5-0.224 0.5-0.5v-0.5h0.5c0.277 0 0.5-0.224 0.5-0.5s-0.223-0.5-0.5-0.5z"></path>
<path d="M14.5 21h-0.5v-0.5c0-0.276-0.223-0.5-0.5-0.5s-0.5 0.224-0.5 0.5v0.5h-0.5c-0.277 0-0.5 0.224-0.5 0.5s0.223 0.5 0.5 0.5h0.5v0.5c0 0.276 0.223 0.5 0.5 0.5s0.5-0.224 0.5-0.5v-0.5h0.5c0.277 0 0.5-0.224 0.5-0.5s-0.223-0.5-0.5-0.5z"></path>
<path d="M11.5 18h-0.5v-0.5c0-0.276-0.223-0.5-0.5-0.5s-0.5 0.224-0.5 0.5v0.5h-0.5c-0.277 0-0.5 0.224-0.5 0.5s0.223 0.5 0.5 0.5h0.5v0.5c0 0.276 0.223 0.5 0.5 0.5s0.5-0.224 0.5-0.5v-0.5h0.5c0.277 0 0.5-0.224 0.5-0.5s-0.223-0.5-0.5-0.5z"></path>
<path d="M19.5 17h-0.5v-0.5c0-0.276-0.224-0.5-0.5-0.5s-0.5 0.224-0.5 0.5v0.5h-0.5c-0.276 0-0.5 0.224-0.5 0.5s0.224 0.5 0.5 0.5h0.5v0.5c0 0.276 0.224 0.5 0.5 0.5s0.5-0.224 0.5-0.5v-0.5h0.5c0.276 0 0.5-0.224 0.5-0.5s-0.224-0.5-0.5-0.5z"></path>
<path d="M18.5 13h-0.5v-0.5c0-0.277-0.224-0.5-0.5-0.5s-0.5 0.223-0.5 0.5v0.5h-0.5c-0.276 0-0.5 0.223-0.5 0.5s0.224 0.5 0.5 0.5h0.5v0.5c0 0.277 0.224 0.5 0.5 0.5s0.5-0.223 0.5-0.5v-0.5h0.5c0.276 0 0.5-0.223 0.5-0.5s-0.224-0.5-0.5-0.5z"></path>
<path d="M24.5 19h-0.5v-0.5c0-0.276-0.224-0.5-0.5-0.5s-0.5 0.224-0.5 0.5v0.5h-0.5c-0.276 0-0.5 0.224-0.5 0.5s0.224 0.5 0.5 0.5h0.5v0.5c0 0.276 0.224 0.5 0.5 0.5s0.5-0.224 0.5-0.5v-0.5h0.5c0.276 0 0.5-0.224 0.5-0.5s-0.224-0.5-0.5-0.5z"></path>
<path d="M15.5 17h-0.5v-0.5c0-0.276-0.223-0.5-0.5-0.5s-0.5 0.224-0.5 0.5v0.5h-0.5c-0.277 0-0.5 0.224-0.5 0.5s0.223 0.5 0.5 0.5h0.5v0.5c0 0.276 0.223 0.5 0.5 0.5s0.5-0.224 0.5-0.5v-0.5h0.5c0.277 0 0.5-0.224 0.5-0.5s-0.223-0.5-0.5-0.5z"></path>
<path d="M22.5 11h-0.5v-0.5c0-0.277-0.224-0.5-0.5-0.5s-0.5 0.223-0.5 0.5v0.5h-0.5c-0.276 0-0.5 0.223-0.5 0.5s0.224 0.5 0.5 0.5h0.5v0.5c0 0.277 0.224 0.5 0.5 0.5s0.5-0.223 0.5-0.5v-0.5h0.5c0.276 0 0.5-0.223 0.5-0.5s-0.224-0.5-0.5-0.5z"></path>
<path d="M23.5 7h-0.5v-0.5c0-0.277-0.224-0.5-0.5-0.5s-0.5 0.223-0.5 0.5v0.5h-0.5c-0.276 0-0.5 0.223-0.5 0.5s0.224 0.5 0.5 0.5h0.5v0.5c0 0.277 0.224 0.5 0.5 0.5s0.5-0.223 0.5-0.5v-0.5h0.5c0.276 0 0.5-0.223 0.5-0.5s-0.224-0.5-0.5-0.5z"></path>
<path d="M25.5 13h-0.5v-0.5c0-0.277-0.224-0.5-0.5-0.5s-0.5 0.223-0.5 0.5v0.5h-0.5c-0.276 0-0.5 0.223-0.5 0.5s0.224 0.5 0.5 0.5h0.5v0.5c0 0.277 0.224 0.5 0.5 0.5s0.5-0.223 0.5-0.5v-0.5h0.5c0.276 0 0.5-0.223 0.5-0.5s-0.224-0.5-0.5-0.5z"></path>
<path d="M11.5 12h-0.5v-0.5c0-0.277-0.223-0.5-0.5-0.5s-0.5 0.223-0.5 0.5v0.5h-0.5c-0.277 0-0.5 0.223-0.5 0.5s0.223 0.5 0.5 0.5h0.5v0.5c0 0.277 0.223 0.5 0.5 0.5s0.5-0.223 0.5-0.5v-0.5h0.5c0.277 0 0.5-0.223 0.5-0.5s-0.223-0.5-0.5-0.5z"></path>
<path d="M27.5 5h-0.5v-0.5c0-0.277-0.224-0.5-0.5-0.5s-0.5 0.223-0.5 0.5v0.5h-0.5c-0.276 0-0.5 0.223-0.5 0.5s0.224 0.5 0.5 0.5h0.5v0.5c0 0.277 0.224 0.5 0.5 0.5s0.5-0.223 0.5-0.5v-0.5h0.5c0.276 0 0.5-0.223 0.5-0.5s-0.224-0.5-0.5-0.5z"></path>
</svg>
