<?xml version="1.0" encoding="utf-8"?>
<!-- Generated by IcoMoon.io -->
<!DOCTYPE svg PUBLIC "-//W3C//DTD SVG 1.1//EN" "http://www.w3.org/Graphics/SVG/1.1/DTD/svg11.dtd">
<svg version="1.1" xmlns="http://www.w3.org/2000/svg" width="32" height="32" viewBox="0 0 32 32">
<title>pre-briefcase</title>
<path d="M29.5 7h-3.5v-0.5c0-0.277-0.224-0.5-0.5-0.5h-1c-0.276 0-0.5 0.223-0.5 0.5v0.5h-16v-0.5c0-0.277-0.223-0.5-0.5-0.5h-1c-0.277 0-0.5 0.223-0.5 0.5v0.5h-3.5c-0.276 0-0.5 0.223-0.5 0.5v20c0 0.276 0.224 0.5 0.5 0.5h27c0.276 0 0.5-0.224 0.5-0.5v-20c0-0.277-0.224-0.5-0.5-0.5v0z"></path>
<path d="M12.5 6.5c0.277 0 0.5-0.223 0.5-0.5 0-0.551 0.449-1 1-1h4c0.551 0 1 0.449 1 1 0 0.277 0.224 0.5 0.5 0.5s0.5-0.223 0.5-0.5c0-1.103-0.897-2-2-2h-4c-1.103 0-2 0.897-2 2 0 0.277 0.223 0.5 0.5 0.5z"></path>
</svg>
