<?xml version="1.0" encoding="utf-8"?>
<!-- Generated by IcoMoon.io -->
<!DOCTYPE svg PUBLIC "-//W3C//DTD SVG 1.1//EN" "http://www.w3.org/Graphics/SVG/1.1/DTD/svg11.dtd">
<svg version="1.1" xmlns="http://www.w3.org/2000/svg" width="32" height="32" viewBox="0 0 32 32">
<title>pre-bar-stacked-graph</title>
<path d="M27.5 6h-7.5v4h7.5c0.276 0 0.5-0.224 0.5-0.5v-3c0-0.276-0.224-0.5-0.5-0.5z"></path>
<path d="M13.5 11h-2.5v4h2.5c0.277 0 0.5-0.224 0.5-0.5v-3c0-0.276-0.223-0.5-0.5-0.5z"></path>
<path d="M18.5 21h-3.5v4h3.5c0.276 0 0.5-0.224 0.5-0.5v-3c0-0.276-0.224-0.5-0.5-0.5z"></path>
<path d="M28.5 27h-23.5v-2h9v-4h-9v-1h11v-4h-11v-1h5v-4h-5v-1h14v-4h-14v-2.5c0-0.276-0.223-0.5-0.5-0.5s-0.5 0.224-0.5 0.5v23.5h-1.5c-0.276 0-0.5 0.224-0.5 0.5s0.224 0.5 0.5 0.5h1.5v1.5c0 0.276 0.223 0.5 0.5 0.5s0.5-0.224 0.5-0.5v-1.5h23.5c0.276 0 0.5-0.224 0.5-0.5s-0.224-0.5-0.5-0.5z"></path>
<path d="M23.5 16h-6.5v4h6.5c0.276 0 0.5-0.224 0.5-0.5v-3c0-0.276-0.224-0.5-0.5-0.5z"></path>
</svg>
