<?xml version="1.0" encoding="utf-8"?>
<!-- Generated by IcoMoon.io -->
<!DOCTYPE svg PUBLIC "-//W3C//DTD SVG 1.1//EN" "http://www.w3.org/Graphics/SVG/1.1/DTD/svg11.dtd">
<svg version="1.1" xmlns="http://www.w3.org/2000/svg" width="32" height="32" viewBox="0 0 32 32">
<title>pre-bar-chart</title>
<path d="M12 24h2v-12h-2z"></path>
<path d="M18 24h2v-9h-2z"></path>
<path d="M6 24h2v-5h-2z"></path>
<path d="M24 24h2v-16h-2z"></path>
<path d="M27 24.5c0 0.276-0.224 0.5-0.5 0.5h-3c-0.276 0-0.5-0.224-0.5-0.5v-17c0-0.276 0.224-0.5 0.5-0.5h3c0.276 0 0.5 0.224 0.5 0.5v17zM21 24.5c0 0.276-0.224 0.5-0.5 0.5h-3c-0.276 0-0.5-0.224-0.5-0.5v-10c0-0.276 0.224-0.5 0.5-0.5h3c0.276 0 0.5 0.224 0.5 0.5v10zM15 24.5c0 0.276-0.223 0.5-0.5 0.5h-3c-0.277 0-0.5-0.224-0.5-0.5v-13c0-0.276 0.223-0.5 0.5-0.5h3c0.277 0 0.5 0.224 0.5 0.5v13zM9 24.5c0 0.276-0.223 0.5-0.5 0.5h-3c-0.277 0-0.5-0.224-0.5-0.5v-6c0-0.276 0.223-0.5 0.5-0.5h3c0.277 0 0.5 0.224 0.5 0.5v6zM29.5 4h-27c-0.276 0-0.5 0.224-0.5 0.5v23c0 0.276 0.224 0.5 0.5 0.5h27c0.276 0 0.5-0.224 0.5-0.5v-23c0-0.276-0.224-0.5-0.5-0.5v0z"></path>
</svg>
