<?xml version="1.0" encoding="utf-8"?>
<!-- Generated by IcoMoon.io -->
<!DOCTYPE svg PUBLIC "-//W3C//DTD SVG 1.1//EN" "http://www.w3.org/Graphics/SVG/1.1/DTD/svg11.dtd">
<svg version="1.1" xmlns="http://www.w3.org/2000/svg" width="32" height="32" viewBox="0 0 32 32">
<title>pre-node-graph</title>
<path d="M29.5 27h-24.5v-23.5c0-0.276-0.223-0.5-0.5-0.5s-0.5 0.224-0.5 0.5v23.5h-1.5c-0.276 0-0.5 0.224-0.5 0.5s0.224 0.5 0.5 0.5h1.5v1.5c0 0.276 0.223 0.5 0.5 0.5s0.5-0.224 0.5-0.5v-1.5h24.5c0.276 0 0.5-0.224 0.5-0.5s-0.224-0.5-0.5-0.5z"></path>
<path d="M26.5 7c-0.827 0-1.5 0.673-1.5 1.5 0 0.271 0.078 0.523 0.205 0.742l-4.167 4.861c-0.168-0.065-0.348-0.104-0.538-0.104-0.404 0-0.768 0.162-1.038 0.422l-3.48-1.74c0.008-0.060 0.018-0.12 0.018-0.182 0-0.827-0.673-1.5-1.5-1.5s-1.5 0.673-1.5 1.5c0 0.271 0.078 0.523 0.205 0.743l-4.167 4.861c-0.168-0.065-0.348-0.104-0.538-0.104-0.827 0-1.5 0.673-1.5 1.5s0.673 1.5 1.5 1.5c0.827 0 1.5-0.673 1.5-1.5 0-0.271-0.078-0.523-0.205-0.743l4.167-4.861c0.168 0.065 0.348 0.104 0.538 0.104 0.403 0 0.768-0.162 1.038-0.422l3.48 1.741c-0.008 0.060-0.018 0.12-0.018 0.181 0 0.827 0.673 1.5 1.5 1.5s1.5-0.673 1.5-1.5c0-0.271-0.078-0.523-0.205-0.743l4.167-4.861c0.168 0.065 0.348 0.104 0.538 0.104 0.827 0 1.5-0.673 1.5-1.5s-0.673-1.5-1.5-1.5z"></path>
</svg>
