<?xml version="1.0" encoding="utf-8"?>
<!-- Generated by IcoMoon.io -->
<!DOCTYPE svg PUBLIC "-//W3C//DTD SVG 1.1//EN" "http://www.w3.org/Graphics/SVG/1.1/DTD/svg11.dtd">
<svg version="1.1" xmlns="http://www.w3.org/2000/svg" width="32" height="32" viewBox="0 0 32 32">
<title>pre-col-graph-increase</title>
<path d="M28.5 28h-2.5v-15.5c0-0.277-0.224-0.5-0.5-0.5h-4c-0.276 0-0.5 0.223-0.5 0.5v15.5h-2v-10.5c0-0.276-0.224-0.5-0.5-0.5h-4c-0.277 0-0.5 0.224-0.5 0.5v10.5h-2v-7.5c0-0.276-0.223-0.5-0.5-0.5h-4c-0.277 0-0.5 0.224-0.5 0.5v7.5h-3v-24.5c0-0.276-0.224-0.5-0.5-0.5s-0.5 0.224-0.5 0.5v25c0 0.276 0.224 0.5 0.5 0.5h25c0.276 0 0.5-0.224 0.5-0.5s-0.224-0.5-0.5-0.5z"></path>
<path d="M25.961 5.309c-0.051-0.122-0.148-0.22-0.27-0.271-0.061-0.026-0.126-0.038-0.191-0.038h-4c-0.276 0-0.5 0.223-0.5 0.5s0.224 0.5 0.5 0.5h2.774c-9.417 9.034-17.797 10.992-17.884 11.012-0.269 0.060-0.439 0.328-0.378 0.597 0.052 0.233 0.258 0.391 0.487 0.391 0.035 0 0.073-0.004 0.109-0.012 0.362-0.081 8.756-2.031 18.392-11.299v2.811c0 0.277 0.224 0.5 0.5 0.5s0.5-0.223 0.5-0.5v-4c0-0.065-0.013-0.13-0.038-0.191z"></path>
</svg>
