<?xml version="1.0" encoding="utf-8"?>
<!-- Generated by IcoMoon.io -->
<!DOCTYPE svg PUBLIC "-//W3C//DTD SVG 1.1//EN" "http://www.w3.org/Graphics/SVG/1.1/DTD/svg11.dtd">
<svg version="1.1" xmlns="http://www.w3.org/2000/svg" width="32" height="32" viewBox="0 0 32 32">
<title>pre-pie-chart-3d</title>
<path d="M15.5 23c-3.58 0-6.874-0.674-9.5-1.796v3.003c2.527 1.122 5.833 1.793 9.5 1.793 8.131 0 14.5-3.294 14.5-7.5v-1c-2.216 3.21-7.878 5.5-14.5 5.5z"></path>
<path d="M5 20.741c-1.755-0.889-3.139-1.994-4-3.241v1c0 2.047 1.513 3.878 4 5.218v-2.977z"></path>
<path d="M15 7.006c-3.668 0.061-6.951 0.795-9.415 1.978l9.415 4.707v-6.684z"></path>
<path d="M16 14h13.966c-0.472-3.878-6.398-6.867-13.966-6.994v6.994z"></path>
<path d="M5 19.45c0-0.024 0.011-0.046 0.014-0.070 0.005-0.036 0.008-0.072 0.021-0.107 0.012-0.030 0.030-0.055 0.048-0.083s0.031-0.055 0.053-0.078c0.026-0.027 0.057-0.047 0.087-0.068 0.019-0.013 0.034-0.032 0.056-0.043l9.099-4.504-9.871-4.935c-2.192 1.31-3.506 3.030-3.506 4.938 0 2 1.524 3.818 4 5.164v-0.215z"></path>
<path d="M15.617 15l-9.617 4.76v0.398c2.546 1.145 5.868 1.841 9.5 1.841 7.669 0 13.964-3.097 14.464-7h-14.348z"></path>
</svg>
