<?xml version="1.0" encoding="utf-8"?>
<!-- Generated by IcoMoon.io -->
<!DOCTYPE svg PUBLIC "-//W3C//DTD SVG 1.1//EN" "http://www.w3.org/Graphics/SVG/1.1/DTD/svg11.dtd">
<svg version="1.1" xmlns="http://www.w3.org/2000/svg" width="32" height="32" viewBox="0 0 32 32">
<title>pre-doc-graph-2</title>
<path d="M20 8c0 0.552 0.449 1 1 1h5c0-0.133-0.053-0.26-0.146-0.354l-5.5-5.5c-0.094-0.094-0.221-0.147-0.354-0.147v5z"></path>
<path d="M19 22h1v-8h-1z"></path>
<path d="M11 22h1v-4h-1z"></path>
<path d="M15 22h1v-11h-1z"></path>
<path d="M22.5 25h-14c-0.277 0-0.5-0.224-0.5-0.5v-16c0-0.276 0.223-0.5 0.5-0.5s0.5 0.224 0.5 0.5v15.5h13.5c0.276 0 0.5 0.224 0.5 0.5s-0.224 0.5-0.5 0.5v0zM10 17.5c0-0.276 0.223-0.5 0.5-0.5h2c0.277 0 0.5 0.224 0.5 0.5v5c0 0.276-0.223 0.5-0.5 0.5h-2c-0.277 0-0.5-0.224-0.5-0.5v-5zM14 10.5c0-0.276 0.223-0.5 0.5-0.5h2c0.276 0 0.5 0.224 0.5 0.5v12c0 0.276-0.224 0.5-0.5 0.5h-2c-0.277 0-0.5-0.224-0.5-0.5v-12zM18 13.5c0-0.276 0.224-0.5 0.5-0.5h2c0.276 0 0.5 0.224 0.5 0.5v9c0 0.276-0.224 0.5-0.5 0.5h-2c-0.276 0-0.5-0.224-0.5-0.5v-9zM21 10c-1.103 0-2-0.897-2-2v-5h-12c-1.103 0-2 0.897-2 2v23c0 1.103 0.897 2 2 2h17c1.103 0 2-0.897 2-2v-18h-5z"></path>
</svg>
