<?xml version="1.0" encoding="utf-8"?>
<!-- Generated by IcoMoon.io -->
<!DOCTYPE svg PUBLIC "-//W3C//DTD SVG 1.1//EN" "http://www.w3.org/Graphics/SVG/1.1/DTD/svg11.dtd">
<svg version="1.1" xmlns="http://www.w3.org/2000/svg" width="32" height="32" viewBox="0 0 32 32">
<title>pre-pie-chart</title>
<path d="M14.5 30c-6.893 0-12.5-5.608-12.5-12.5s5.607-12.5 12.5-12.5c0.277 0 0.5 0.223 0.5 0.5v11.5h11.5c0.276 0 0.5 0.224 0.5 0.5 0 6.892-5.608 12.5-12.5 12.5z"></path>
<path d="M28.51 16c-0.003-0.001-0.007-0.001-0.009 0h-12c-0.276 0-0.5-0.223-0.5-0.5v-12c0-0.276 0.224-0.5 0.5-0.5 6.858 0 12.444 5.552 12.499 12.398 0.006 0.033 0.010 0.067 0.010 0.102 0 0.277-0.224 0.5-0.5 0.5z"></path>
</svg>
