<svg xmlns="http://www.w3.org/2000/svg" xmlns:xlink="http://www.w3.org/1999/xlink" viewBox="0 0 70.00101 52.431" aria-labelledby="icon-resources"><defs><style>.icon-resources-color1,.icon-resources-color4{opacity:0.8;}.icon-resources-color2{fill:url(#linear-gradient);}.icon-resources-color3{fill:#fff;}.icon-resources-color4{isolation:isolate;fill:url(#linear-gradient-2);}</style><linearGradient id="linear-gradient" x1="-945.121" y1="1021.762" x2="-944.058" y2="1022.935" gradientTransform="matrix(70.001 0 0 -52.431 66176.967 53635.866)" gradientUnits="userSpaceOnUse"><stop offset="0" stop-color="#008ed1"/><stop offset=".42" stop-color="#4300a3"/><stop offset="1" stop-color="#ff00cf"/></linearGradient><linearGradient id="linear-gradient-2" x1="-905.586" y1="995.672" x2="-904.524" y2="996.844" gradientTransform="matrix(18 0 0 -21.589 16334 21547.15)" xlink:href="#linear-gradient"/></defs><title id="icon-resources">Resources</title><path id="b" class="icon-resources-color2" d="M54.561 24.242a21.247 21.247 0 0 1 7.896 1.88 20.842 20.842 0 0 1 6.392 4.512 21.681 21.681 0 0 1 4.341 6.597 23.029 23.029 0 0 1 1.812 7.998 20.888 20.888 0 0 1-1.675 8.34 21.49 21.49 0 0 1-11.348 11.382 20.641 20.641 0 0 1-8.306 1.675h-31.309a17.494 17.494 0 0 1-6.733-1.606 19.074 19.074 0 0 1-5.537-3.828 17.783 17.783 0 0 1-3.726-5.469 16.06 16.06 0 0 1-1.367-6.528 15.869 15.869 0 0 1 .991-5.64 17.633 17.633 0 0 1 6.87-8.579 19.262 19.262 0 0 1 5.195-2.393 20.92 20.92 0 0 1 1.948-7.314 19.312 19.312 0 0 1 4.238-5.811 19.725 19.725 0 0 1 6.05-3.862 19.098 19.098 0 0 1 7.314-1.401 18.483 18.483 0 0 1 9.946 2.734 20.176 20.176 0 0 1 7.007 7.314z" transform="translate(-5.001 -14.195)"/><path id="Path-2" class="icon-resources-color3" d="M53.672 62.25a18.214 18.214 0 0 0 6.494-1.162 16.662 16.662 0 0 0 5.4-3.281 15.521 15.521 0 0 0 5.058-11.69 16.551 16.551 0 0 0-1.367-6.733 17.215 17.215 0 0 0-3.691-5.4 17.575 17.575 0 0 0-5.4-3.623 16.153 16.153 0 0 0-6.494-1.333h-2.188a7.462 7.462 0 0 0-.889-2.324q-.615-1.026-1.23-1.982a10.859 10.859 0 0 0-4.751-4.58 15.315 15.315 0 0 0-7.007-1.572 13.903 13.903 0 0 0-6.426 1.436 14.496 14.496 0 0 0-4.751 3.862 17.998 17.998 0 0 0-3.008 5.571 20.637 20.637 0 0 0-1.06 6.631 13.455 13.455 0 0 0-9.263 4.272 12.546 12.546 0 0 0-3.726 8.853 11.073 11.073 0 0 0 2.017 6.973 14.836 14.836 0 0 0 4.478 3.965 15.132 15.132 0 0 0 4.478 1.743l2.017.376h31.309z" transform="translate(-5.001 -14.195)"/><path class="icon-resources-color4" d="M36.766 32.76l4.84-5.221 2.393 2.447-8.973 9.408-9.027-9.408 2.447-2.447 4.84 5.221v-14.955h3.48z"/></svg>