<svg width="80" height="80" viewBox="0 0 80 80" xmlns="http://www.w3.org/2000/svg" xmlns:xlink="http://www.w3.org/1999/xlink"><title>Icon/Resources</title><desc>Created with Sketch.</desc><defs><linearGradient x1="11.552%" y1="88.916%" x2="117.786%" y2="-28.346%" id="c"><stop stop-color="#008ED1" offset="0%"/><stop stop-color="#4300A3" offset="42.04%"/><stop stop-color="#FF00CF" offset="100%"/></linearGradient><path d="M54.561 24.242c2.826.137 5.457.763 7.896 1.88 2.438 1.117 4.569 2.62 6.392 4.512 1.823 1.891 3.27 4.09 4.341 6.597 1.071 2.507 1.675 5.173 1.812 7.998 0 2.962-.558 5.742-1.675 8.34s-2.643 4.865-4.58 6.802c-1.937 1.937-4.193 3.464-6.768 4.58-2.575 1.117-5.343 1.675-8.306 1.675h-31.309c-2.37-.091-4.614-.627-6.733-1.606-2.119-.98-3.965-2.256-5.537-3.828s-2.814-3.395-3.726-5.469c-.911-2.074-1.367-4.25-1.367-6.528 0-2.005.33-3.885.991-5.64s1.572-3.361 2.734-4.819c1.162-1.458 2.541-2.712 4.136-3.76 1.595-1.048 3.327-1.846 5.195-2.393.228-2.643.877-5.081 1.948-7.314 1.071-2.233 2.484-4.17 4.238-5.811 1.755-1.641 3.771-2.928 6.05-3.862 2.279-.934 4.717-1.401 7.314-1.401 3.691 0 7.007.911 9.946 2.734s5.275 4.261 7.007 7.314z" id="b"/><filter x="-34.3%" y="-26.7%" width="168.6%" height="191.5%" filterUnits="objectBoundingBox" id="a"><feOffset dy="2" in="SourceAlpha" result="shadowOffsetOuter1"/><feGaussianBlur stdDeviation="4" in="shadowOffsetOuter1" result="shadowBlurOuter1"/><feColorMatrix values="0 0 0 0 0.239215686 0 0 0 0 0.443137255 0 0 0 0 0.764705882 0 0 0 0.08 0" in="shadowBlurOuter1" result="shadowMatrixOuter1"/><feOffset dy="8" in="SourceAlpha" result="shadowOffsetOuter2"/><feGaussianBlur stdDeviation="4" in="shadowOffsetOuter2" result="shadowBlurOuter2"/><feColorMatrix values="0 0 0 0 0 0 0 0 0 0 0 0 0 0 0 0 0 0 0.08 0" in="shadowBlurOuter2" result="shadowMatrixOuter2"/><feMerge><feMergeNode in="shadowMatrixOuter1"/><feMergeNode in="shadowMatrixOuter2"/></feMerge></filter></defs><g fill="none"><g id="Path" opacity=".8"><use fill="#000" filter="url(#a)" xlink:href="#b"/><use fill="url(#c)" xlink:href="#b"/></g><path d="M53.672 62.25c2.279 0 4.443-.387 6.494-1.162 2.051-.775 3.851-1.868 5.4-3.281 1.549-1.413 2.78-3.11 3.691-5.093.911-1.982 1.367-4.181 1.367-6.597 0-2.415-.456-4.66-1.367-6.733-.911-2.074-2.142-3.874-3.691-5.4-1.549-1.527-3.35-2.734-5.4-3.623-2.051-.889-4.215-1.333-6.494-1.333h-2.188c-.182-.866-.479-1.641-.889-2.324-.41-.684-.82-1.344-1.23-1.982-1.094-2.005-2.677-3.532-4.751-4.58-2.074-1.048-4.409-1.572-7.007-1.572-2.415 0-4.557.479-6.426 1.436-1.868.957-3.452 2.244-4.751 3.862-1.299 1.618-2.301 3.475-3.008 5.571-.706 2.096-1.06 4.307-1.06 6.631-3.691.228-6.779 1.652-9.263 4.272s-3.726 5.571-3.726 8.853c0 2.917.672 5.241 2.017 6.973 1.344 1.732 2.837 3.053 4.478 3.965 1.641.911 3.133 1.493 4.478 1.743l2.017.376h31.309z" id="Path" fill="#fff"/><path fill="url(#c)" opacity=".8" d="M41.767 46.955l4.84-5.221 2.393 2.447-8.973 9.408-9.027-9.408 2.447-2.447 4.84 5.221v-14.955h3.48z"/></g></svg>