<?xml version="1.0" encoding="utf-8"?>
<!-- Generated by IcoMoon.io -->
<!DOCTYPE svg PUBLIC "-//W3C//DTD SVG 1.1//EN" "http://www.w3.org/Graphics/SVG/1.1/DTD/svg11.dtd">
<svg version="1.1" xmlns="http://www.w3.org/2000/svg" width="32" height="32" viewBox="0 0 32 32">
<title>spa-helmet</title>
<path d="M27.5 11h-0.163c0.88 2.691 0.875 5.459-0.026 8h0.189c1.101 0 1.5-0.897 1.5-1.5v-5c0-0.603-0.399-1.5-1.5-1.5z"></path>
<path d="M4 15c0-1.702 0.359-3.321 1-4.789v-6.711c0-0.276-0.223-0.5-0.5-0.5s-0.5 0.224-0.5 0.5v7.581c-0.719 0.226-1 0.919-1 1.419v5c0 0.603 0.4 1.5 1.5 1.5h0.195c-0.453-1.275-0.695-2.622-0.695-4z"></path>
<path d="M26.16 21.374c-2.126 3.376-5.884 5.625-10.16 5.625s-8.034-2.25-10.159-5.625c-0.088 0.065-0.175 0.133-0.255 0.212-0.779 0.78-0.779 2.049-0.011 2.817 2.901 3.093 6.311 4.597 10.425 4.597s7.524-1.503 10.415-4.585c0.779-0.78 0.779-2.049 0-2.828-0.079-0.078-0.166-0.146-0.255-0.212z"></path>
<path d="M7 12.5c0-0.182 0.099-0.35 0.259-0.438 2.556-1.406 5.333-2.062 8.741-2.062s6.184 0.655 8.741 2.062c0.16 0.088 0.259 0.255 0.259 0.438v8.813c1.258-1.788 2-3.965 2-6.313 0-6.066-4.934-11-11-11s-11 4.934-11 11c0 2.348 0.742 4.524 2 6.313v-8.813z"></path>
<path d="M16 13c-3.431 0-5.364 0.752-6 1.053v3.447c0 0.276-0.223 0.5-0.5 0.5s-0.5-0.224-0.5-0.5v-3.75c0-0.172 0.089-0.332 0.235-0.424 0.087-0.054 2.174-1.326 6.765-1.326 0.276 0 0.5 0.224 0.5 0.5s-0.224 0.5-0.5 0.5v0zM24 12.799c-2.332-1.226-4.884-1.799-8-1.799s-5.668 0.572-8 1.799v9.739c2.007 2.129 4.85 3.462 8 3.462s5.993-1.333 8-3.462v-9.739z"></path>
</svg>
