<?xml version="1.0" encoding="utf-8"?>
<!-- Generated by IcoMoon.io -->
<!DOCTYPE svg PUBLIC "-//W3C//DTD SVG 1.1//EN" "http://www.w3.org/Graphics/SVG/1.1/DTD/svg11.dtd">
<svg version="1.1" xmlns="http://www.w3.org/2000/svg" width="32" height="32" viewBox="0 0 32 32">
<title>spa-sputnik</title>
<path d="M24.5 5c-1.378 0-2.5 1.122-2.5 2.5 0 0.277-0.224 0.5-0.5 0.5s-0.5-0.223-0.5-0.5c0-1.929 1.57-3.5 3.5-3.5 0.276 0 0.5 0.223 0.5 0.5s-0.224 0.5-0.5 0.5zM28.389 3.611c-2.128-2.13-5.582-2.142-7.73-0.043l-18.439 12.519c-0.228 0.154-0.288 0.465-0.132 0.694 0.096 0.143 0.254 0.22 0.414 0.22 0.096 0 0.195-0.028 0.28-0.087l16.534-11.225c-0.498 1.436-0.392 3.034 0.331 4.394l-11.475 10.040c-0.208 0.182-0.229 0.498-0.047 0.706 0.099 0.113 0.238 0.171 0.377 0.171 0.117 0 0.235-0.041 0.329-0.123l11.372-9.95c0.127 0.159 0.262 0.315 0.41 0.462 0.090 0.091 0.188 0.174 0.284 0.258l-14.757 15.51c-0.191 0.2-0.183 0.517 0.018 0.707 0.097 0.091 0.221 0.137 0.345 0.137 0.132 0 0.264-0.052 0.362-0.155l18.527-19.473c0.191-0.2 0.508-0.207 0.707-0.018 0.201 0.191 0.208 0.507 0.017 0.707l-3.438 3.613c0.579 0.206 1.19 0.325 1.823 0.325 0.625 0 1.233-0.11 1.808-0.309l-11.221 16.529c-0.155 0.229-0.096 0.54 0.133 0.695 0.086 0.058 0.184 0.087 0.28 0.087 0.16 0 0.318-0.076 0.414-0.219l12.518-18.44c1.011-1.034 1.569-2.394 1.569-3.842 0-1.47-0.572-2.851-1.611-3.889z"></path>
</svg>
