<?xml version="1.0" encoding="utf-8"?>
<!-- Generated by IcoMoon.io -->
<!DOCTYPE svg PUBLIC "-//W3C//DTD SVG 1.1//EN" "http://www.w3.org/Graphics/SVG/1.1/DTD/svg11.dtd">
<svg version="1.1" xmlns="http://www.w3.org/2000/svg" width="32" height="32" viewBox="0 0 32 32">
<title>spa-moon-earth</title>
<path d="M13.414 24.414c-0.377 0.378-0.88 0.586-1.415 0.586s-1.036-0.208-1.414-0.586c-0.78-0.779-0.78-2.049 0.001-2.828 0.195-0.195 0.511-0.195 0.707 0s0.195 0.512 0 0.707c-0.39 0.39-0.39 1.024 0 1.414 0.377 0.378 1.036 0.378 1.414 0 0.195-0.195 0.511-0.195 0.707 0s0.195 0.512 0 0.707zM8.561 26.561c-0.293 0.293-0.676 0.439-1.061 0.439s-0.768-0.146-1.061-0.439c-0.585-0.585-0.585-1.536 0-2.121 0.195-0.195 0.511-0.195 0.707 0s0.195 0.512 0 0.707c-0.195 0.195-0.195 0.512 0 0.707s0.512 0.195 0.707 0c0.196-0.195 0.511-0.195 0.707 0s0.196 0.512 0 0.707zM6.293 19.293c0.195-0.195 0.511-0.195 0.707 0s0.195 0.512 0 0.707c0.195-0.195 0.511-0.195 0.707 0s0.196 0.512 0 0.707c-0.195 0.195-0.451 0.293-0.707 0.293s-0.513-0.098-0.707-0.293c-0.39-0.39-0.39-1.024 0-1.414zM9 16c-1.37 0-2.646 0.402-3.727 1.085-1.963 1.241-3.273 3.425-3.273 5.915 0 3.859 3.14 6.999 6.999 7h0.001c2.489 0 4.673-1.31 5.914-3.273h0.001c0.683-1.081 1.085-2.357 1.085-3.727 0-3.86-3.14-7-7-7z"></path>
<path d="M17.5 2c-6.893 0-12.5 5.607-12.5 12.5 0 0.51 0.037 1.018 0.099 1.523 1.155-0.649 2.485-1.023 3.901-1.023 4.411 0 8 3.589 8 8 0 1.416-0.374 2.745-1.023 3.901 0.504 0.063 1.012 0.099 1.523 0.099 6.893 0 12.5-5.608 12.5-12.5s-5.607-12.5-12.5-12.5z"></path>
</svg>
