<?xml version="1.0" encoding="utf-8"?>
<!-- Generated by IcoMoon.io -->
<!DOCTYPE svg PUBLIC "-//W3C//DTD SVG 1.1//EN" "http://www.w3.org/Graphics/SVG/1.1/DTD/svg11.dtd">
<svg version="1.1" xmlns="http://www.w3.org/2000/svg" width="32" height="32" viewBox="0 0 32 32">
<title>spa-stars</title>
<path d="M17.5 30c-0.076 0-0.153-0.017-0.224-0.052l-4.777-2.389-4.777 2.389c-0.17 0.084-0.373 0.066-0.524-0.048s-0.226-0.304-0.191-0.491l0.953-5.171-3.818-3.889c-0.135-0.137-0.179-0.341-0.112-0.523s0.231-0.308 0.424-0.326l5.223-0.474 2.376-4.751c0.17-0.339 0.725-0.339 0.895 0l2.376 4.751 5.223 0.474c0.192 0.017 0.358 0.145 0.424 0.326 0.067 0.181 0.023 0.385-0.112 0.523l-3.819 3.889 0.953 5.171c0.035 0.186-0.040 0.377-0.191 0.491-0.088 0.067-0.194 0.101-0.3 0.101z"></path>
<path d="M9 10.5c-0.076 0-0.153-0.018-0.223-0.053l-2.277-1.139-2.277 1.139c-0.17 0.085-0.373 0.066-0.524-0.048s-0.225-0.304-0.191-0.491l0.453-2.458-1.818-1.851c-0.135-0.138-0.179-0.341-0.112-0.523s0.232-0.308 0.424-0.325l2.472-0.224 1.125-2.251c0.17-0.339 0.725-0.339 0.894 0l1.126 2.251 2.473 0.224c0.193 0.018 0.357 0.144 0.424 0.325 0.067 0.182 0.023 0.385-0.112 0.523l-1.819 1.851 0.453 2.458c0.034 0.187-0.040 0.377-0.191 0.491-0.088 0.066-0.194 0.101-0.3 0.101z"></path>
<path d="M27.5 16c-0.073 0-0.145-0.015-0.212-0.047l-3.788-1.779-3.788 1.779c-0.174 0.082-0.381 0.057-0.53-0.067-0.149-0.123-0.215-0.32-0.167-0.508l0.931-3.706-2.802-2.82c-0.136-0.137-0.181-0.341-0.115-0.524s0.232-0.309 0.424-0.327l3.872-0.354 1.729-3.377c0.171-0.334 0.719-0.334 0.89 0l1.729 3.377 3.872 0.354c0.193 0.018 0.358 0.145 0.424 0.327 0.067 0.182 0.021 0.386-0.114 0.524l-2.802 2.82 0.931 3.706c0.047 0.188-0.018 0.385-0.167 0.508-0.091 0.075-0.204 0.114-0.318 0.114z"></path>
</svg>
