<?xml version="1.0" encoding="utf-8"?>
<!-- Generated by IcoMoon.io -->
<!DOCTYPE svg PUBLIC "-//W3C//DTD SVG 1.1//EN" "http://www.w3.org/Graphics/SVG/1.1/DTD/svg11.dtd">
<svg version="1.1" xmlns="http://www.w3.org/2000/svg" width="32" height="32" viewBox="0 0 32 32">
<title>spa-meteor-2</title>
<path d="M13.414 22.707c0.195 0.195 0.195 0.512 0 0.707-0.377 0.378-0.88 0.586-1.414 0.586s-1.036-0.208-1.414-0.586c-0.78-0.779-0.78-2.049 0-2.828 0.195-0.195 0.511-0.195 0.707 0s0.195 0.512 0 0.707c-0.389 0.39-0.389 1.024 0 1.414 0.378 0.378 1.036 0.378 1.414 0 0.196-0.195 0.511-0.195 0.707 0zM9.134 21.134c-0.236 0.236-0.55 0.366-0.884 0.366s-0.649-0.131-0.885-0.366c-0.487-0.487-0.487-1.28 0-1.768 0.196-0.195 0.512-0.195 0.707 0s0.196 0.512 0 0.707c-0.097 0.098-0.097 0.256 0 0.354 0.064 0.064 0.139 0.073 0.177 0.073s0.113-0.009 0.177-0.073c0.196-0.195 0.512-0.195 0.707 0s0.195 0.512 0 0.707zM8.707 24.707c-0.195 0.195-0.451 0.293-0.707 0.293s-0.512-0.098-0.707-0.293c-0.39-0.39-0.39-1.024 0-1.414 0.196-0.195 0.511-0.195 0.707 0s0.195 0.512 0 0.707l-0 0c0.196-0.195 0.512-0.195 0.708 0s0.196 0.511 0 0.706zM9.501 18c-2.482 0-4.501 2.020-4.501 4.505 0 2.479 2.019 4.495 4.501 4.495 2.481 0 4.499-2.017 4.499-4.495 0-2.484-2.018-4.505-4.499-4.505z"></path>
<path d="M9.501 28c-3.033 0-5.501-2.465-5.501-5.495 0-3.035 2.468-5.505 5.501-5.505s5.499 2.469 5.499 5.505c0 3.030-2.467 5.495-5.499 5.495zM29.849 2.142c-0.177-0.171-0.451-0.189-0.648-0.042l-14.573 10.931 1.338-3.345c0.081-0.204 0.021-0.438-0.151-0.575s-0.412-0.146-0.595-0.024c-0.396 0.269-9.716 6.606-11.022 8.111-2.925 2.924-2.925 7.682 0 10.606 1.462 1.462 3.383 2.194 5.303 2.194s3.841-0.732 5.303-2.194c0.008-0.006 0.014-0.014 0.021-0.022 1.175-1.325 6.832-8.665 7.072-8.977 0.13-0.169 0.139-0.401 0.023-0.579-0.116-0.177-0.332-0.264-0.54-0.211l-2.694 0.674 11.223-15.9c0.142-0.201 0.116-0.475-0.060-0.647z"></path>
</svg>
