<?xml version="1.0" encoding="utf-8"?>
<!-- Generated by IcoMoon.io -->
<!DOCTYPE svg PUBLIC "-//W3C//DTD SVG 1.1//EN" "http://www.w3.org/Graphics/SVG/1.1/DTD/svg11.dtd">
<svg version="1.1" xmlns="http://www.w3.org/2000/svg" width="32" height="32" viewBox="0 0 32 32">
<title>spa-lander</title>
<path d="M12 18h-3.5c-0.277 0-0.5 0.224-0.5 0.5v1.87l-4.794 8.63h-0.706c-0.276 0-0.5 0.224-0.5 0.5s0.224 0.5 0.5 0.5h2.5c0.277 0 0.5-0.224 0.5-0.5s-0.223-0.5-0.5-0.5h-0.651l3.651-6.57v1.070c0 0.276 0.223 0.5 0.5 0.5h3.5v-6z"></path>
<path d="M28.5 29h-0.706l-4.794-8.63v-1.87c0-0.276-0.224-0.5-0.5-0.5h-3.5v6h3.5c0.276 0 0.5-0.224 0.5-0.5v-1.070l3.65 6.57h-0.65c-0.276 0-0.5 0.224-0.5 0.5s0.224 0.5 0.5 0.5h2.5c0.276 0 0.5-0.224 0.5-0.5s-0.224-0.5-0.5-0.5z"></path>
<path d="M13 24h5v-6h-5z"></path>
<path d="M18.658 25h-6.315c-0.217 0.456-0.342 0.963-0.342 1.5 0 0.276 0.223 0.5 0.5 0.5h2.5v2h-0.5c-0.277 0-0.5 0.224-0.5 0.5s0.223 0.5 0.5 0.5h2c0.276 0 0.5-0.224 0.5-0.5s-0.224-0.5-0.5-0.5h-0.5v-2h2.5c0.276 0 0.5-0.224 0.5-0.5 0-0.537-0.125-1.044-0.343-1.5z"></path>
<path d="M13 17v-4h-4.707l4 4z"></path>
<path d="M8 12h5v-3h-5z"></path>
<path d="M13 8v-4.707l-4.707 4.707z"></path>
<path d="M18 12h5v-3h-5z"></path>
<path d="M18.707 17l4-4h-4.707v4z"></path>
<path d="M14 17h3v-14h-3z"></path>
<path d="M18 3.293v4.707h4.707z"></path>
</svg>
