<?xml version="1.0" encoding="utf-8"?>
<!-- Generated by IcoMoon.io -->
<!DOCTYPE svg PUBLIC "-//W3C//DTD SVG 1.1//EN" "http://www.w3.org/Graphics/SVG/1.1/DTD/svg11.dtd">
<svg version="1.1" xmlns="http://www.w3.org/2000/svg" width="32" height="32" viewBox="0 0 32 32">
<title>spa-satellite</title>
<path d="M13.682 18.318c-0.85-0.85-1.98-1.319-3.182-1.319s-2.332 0.468-3.183 1.319c-0.093 0.093-0.146 0.221-0.146 0.354s0.053 0.26 0.146 0.354l2.475 2.474-1.646 1.646c-0.196 0.195-0.196 0.512 0 0.707 0.098 0.098 0.226 0.146 0.354 0.146s0.255-0.049 0.354-0.146l1.646-1.646 2.475 2.475c0.098 0.098 0.226 0.146 0.354 0.146s0.256-0.049 0.354-0.146c0.85-0.85 1.318-1.98 1.318-3.182s-0.468-2.332-1.318-3.181z"></path>
<path d="M9.5 26c-1.929 0-3.5-1.57-3.5-3.5 0-0.276 0.223-0.5 0.5-0.5s0.5 0.224 0.5 0.5c0 1.378 1.121 2.5 2.5 2.5 0.277 0 0.5 0.224 0.5 0.5s-0.223 0.5-0.5 0.5z"></path>
<path d="M9.5 28c-3.033 0-5.5-2.468-5.5-5.5 0-0.276 0.223-0.5 0.5-0.5s0.5 0.224 0.5 0.5c0 2.482 2.018 4.5 4.5 4.5 0.277 0 0.5 0.224 0.5 0.5s-0.223 0.5-0.5 0.5z"></path>
<path d="M9.5 30c-4.136 0-7.5-3.364-7.5-7.5 0-0.276 0.224-0.5 0.5-0.5s0.5 0.224 0.5 0.5c0 3.584 2.916 6.5 6.5 6.5 0.277 0 0.5 0.224 0.5 0.5s-0.223 0.5-0.5 0.5z"></path>
<path d="M29.854 19.146l-5-5c-0.195-0.195-0.512-0.195-0.707 0l-2.146 2.146-0.672-0.672 2.646-2.646c0.662-0.661 1.026-1.54 1.026-2.474s-0.364-1.814-1.026-2.474c-0.66-0.662-1.54-1.026-2.474-1.026s-1.814 0.364-2.474 1.026l-2.628 2.628-0.672-0.672 2.128-2.128c0.195-0.196 0.195-0.511 0-0.707l-5-5c-0.195-0.196-0.511-0.196-0.707 0l-5 5c-0.196 0.196-0.196 0.511 0 0.707l5 5c0.098 0.098 0.226 0.146 0.354 0.146s0.256-0.049 0.354-0.146l2.165-2.165 0.672 0.672-1.665 1.665c-0.662 0.661-1.026 1.54-1.026 2.474s0.364 1.814 1.026 2.474c0.661 0.662 1.54 1.026 2.474 1.026s1.814-0.364 2.474-1.026l1.646-1.646 0.672 0.672-2.146 2.146c-0.195 0.195-0.195 0.512 0 0.707l5 5c0.098 0.098 0.226 0.146 0.354 0.146s0.256-0.049 0.354-0.146l5-5c0.195-0.195 0.195-0.512 0-0.707z"></path>
</svg>
