<?xml version="1.0" encoding="utf-8"?>
<!-- Generated by IcoMoon.io -->
<!DOCTYPE svg PUBLIC "-//W3C//DTD SVG 1.1//EN" "http://www.w3.org/Graphics/SVG/1.1/DTD/svg11.dtd">
<svg version="1.1" xmlns="http://www.w3.org/2000/svg" width="32" height="32" viewBox="0 0 32 32">
<title>spa-orbit</title>
<path d="M16 13c-1.655 0-3 1.345-3 3 0 0.276-0.224 0.5-0.5 0.5s-0.5-0.224-0.5-0.5c0-2.206 1.794-4 4-4 0.276 0 0.5 0.223 0.5 0.5s-0.224 0.5-0.5 0.5zM16 10c-3.309 0-6 2.691-6 6s2.691 6 6 6c3.308 0 6-2.692 6-6s-2.692-6-6-6z"></path>
<path d="M13.23 3.284c-0.232 0-0.44-0.162-0.489-0.398-0.056-0.271 0.117-0.535 0.387-0.591 0.681-0.142 1.38-0.233 2.076-0.272 0.277-0.021 0.511 0.196 0.527 0.471s-0.196 0.511-0.472 0.527c-0.647 0.036-1.296 0.122-1.928 0.253-0.034 0.007-0.069 0.010-0.102 0.010zM20.214 3.671c-0.052 0-0.104-0.007-0.155-0.025-0.616-0.202-1.25-0.358-1.887-0.466-0.273-0.046-0.456-0.304-0.41-0.576s0.302-0.458 0.576-0.41c0.686 0.115 1.371 0.284 2.034 0.502 0.262 0.086 0.405 0.369 0.319 0.631-0.069 0.211-0.265 0.344-0.475 0.344zM8.593 5.212c-0.163 0-0.322-0.079-0.418-0.225-0.152-0.231-0.088-0.541 0.143-0.692 0.584-0.384 1.2-0.726 1.831-1.016 0.251-0.114 0.548-0.006 0.663 0.245s0.005 0.548-0.245 0.663c-0.585 0.269-1.157 0.586-1.699 0.943-0.085 0.056-0.18 0.082-0.274 0.082zM24.612 6.102c-0.113 0-0.226-0.037-0.319-0.115-0.5-0.415-1.035-0.794-1.586-1.127-0.236-0.143-0.313-0.45-0.17-0.686s0.45-0.313 0.686-0.17c0.594 0.359 1.168 0.766 1.707 1.213 0.212 0.176 0.242 0.492 0.067 0.704-0.099 0.12-0.242 0.181-0.386 0.181zM4.978 8.703c-0.1 0-0.201-0.030-0.288-0.092-0.226-0.159-0.279-0.472-0.119-0.697 0.402-0.567 0.851-1.11 1.335-1.614 0.192-0.2 0.508-0.205 0.707-0.014s0.205 0.508 0.014 0.707c-0.45 0.468-0.867 0.973-1.24 1.499-0.098 0.137-0.252 0.211-0.409 0.211zM27.819 9.97c-0.176 0-0.346-0.092-0.438-0.258-0.313-0.564-0.671-1.111-1.067-1.626-0.168-0.218-0.127-0.532 0.092-0.701s0.532-0.127 0.701 0.092c0.425 0.553 0.812 1.142 1.148 1.751 0.134 0.242 0.047 0.546-0.195 0.679-0.077 0.043-0.16 0.063-0.242 0.063zM2.889 13.273c-0.039 0-0.079-0.005-0.119-0.014-0.268-0.066-0.433-0.337-0.366-0.605 0.166-0.677 0.385-1.348 0.651-1.992 0.105-0.255 0.398-0.374 0.653-0.271 0.255 0.105 0.376 0.398 0.271 0.653-0.247 0.598-0.45 1.22-0.605 1.849-0.056 0.228-0.26 0.381-0.485 0.381zM29.386 14.742c-0.247 0-0.462-0.184-0.495-0.435-0.084-0.642-0.216-1.283-0.395-1.903-0.076-0.265 0.077-0.543 0.343-0.618 0.266-0.074 0.543 0.077 0.619 0.342 0.192 0.669 0.335 1.359 0.425 2.051 0.035 0.274-0.157 0.525-0.431 0.56-0.022 0.003-0.044 0.005-0.065 0.005zM2.617 18.29c-0.247 0-0.462-0.183-0.494-0.434-0.082-0.611-0.122-1.235-0.122-1.855l0.002-0.235c0.005-0.273 0.228-0.492 0.5-0.492h0.008c0.276 0.004 0.497 0.232 0.492 0.508l-0.002 0.218c0 0.576 0.038 1.157 0.113 1.724 0.037 0.274-0.156 0.526-0.43 0.561-0.022 0.003-0.045 0.005-0.067 0.005zM29.105 19.758c-0.040 0-0.081-0.005-0.121-0.015-0.268-0.067-0.431-0.338-0.365-0.606 0.155-0.625 0.265-1.27 0.325-1.916 0.026-0.275 0.262-0.483 0.544-0.451 0.275 0.026 0.477 0.27 0.451 0.544-0.065 0.696-0.183 1.391-0.349 2.064-0.057 0.227-0.261 0.38-0.485 0.38zM27.003 24.323c-0.101 0-0.202-0.030-0.29-0.093-0.225-0.16-0.277-0.473-0.117-0.698 0.375-0.527 0.715-1.087 1.007-1.665 0.125-0.247 0.425-0.347 0.672-0.22 0.247 0.125 0.345 0.426 0.22 0.672-0.315 0.622-0.68 1.224-1.084 1.793-0.097 0.137-0.252 0.21-0.407 0.21zM23.382 27.805c-0.163 0-0.323-0.079-0.419-0.226-0.151-0.232-0.087-0.541 0.145-0.692 0.541-0.355 1.061-0.753 1.544-1.183 0.206-0.184 0.522-0.166 0.706 0.040s0.166 0.523-0.040 0.706c-0.52 0.463-1.079 0.892-1.662 1.273-0.084 0.055-0.18 0.081-0.273 0.081zM10.806 28.965c-0.064 0-0.129-0.012-0.193-0.038-0.642-0.267-1.271-0.587-1.867-0.95-0.236-0.143-0.311-0.451-0.168-0.686 0.143-0.237 0.451-0.312 0.687-0.168 0.554 0.337 1.137 0.633 1.733 0.881 0.255 0.106 0.376 0.399 0.269 0.654-0.079 0.192-0.266 0.308-0.461 0.308zM18.738 29.723c-0.233 0-0.441-0.163-0.489-0.399-0.056-0.27 0.118-0.535 0.389-0.591 0.634-0.131 1.263-0.311 1.869-0.535 0.259-0.096 0.547 0.037 0.642 0.296s-0.037 0.547-0.296 0.642c-0.654 0.241-1.331 0.435-2.014 0.576-0.034 0.007-0.068 0.011-0.102 0.011zM15.725 29.997h-0.011c-0.7-0.015-1.402-0.081-2.085-0.198-0.273-0.046-0.455-0.305-0.409-0.577 0.047-0.271 0.303-0.456 0.578-0.409 0.634 0.108 1.286 0.171 1.937 0.183 0.276 0.005 0.496 0.233 0.49 0.509-0.006 0.273-0.228 0.491-0.499 0.491z"></path>
<path d="M6.924 25.308c-0.128-0.125-0.247-0.259-0.37-0.389 0.28-0.404 0.446-0.892 0.446-1.419 0-1.378-1.122-2.5-2.5-2.5-0.162 0-0.32 0.018-0.474 0.048-0.070-0.166-0.144-0.33-0.207-0.497-0.096-0.259-0.385-0.389-0.643-0.294-0.259 0.096-0.39 0.384-0.293 0.643 0.066 0.177 0.146 0.351 0.22 0.527-0.664 0.45-1.102 1.21-1.102 2.072 0 1.378 1.122 2.5 2.5 2.5 0.49 0 0.944-0.147 1.33-0.392 0.132 0.139 0.259 0.282 0.396 0.416 0.098 0.095 0.223 0.142 0.349 0.142 0.13 0 0.26-0.050 0.359-0.151 0.192-0.198 0.189-0.514-0.010-0.707z"></path>
<path d="M19.227 7.562c-0.056 0-0.114-0.009-0.17-0.029-0.599-0.217-1.226-0.37-1.861-0.454-0.273-0.036-0.466-0.287-0.43-0.561s0.288-0.464 0.561-0.429c0.706 0.093 1.401 0.263 2.069 0.505 0.259 0.093 0.394 0.38 0.3 0.64-0.073 0.204-0.265 0.33-0.47 0.33zM12.304 7.746c-0.195 0-0.38-0.114-0.461-0.305-0.107-0.255 0.011-0.548 0.266-0.655 0.652-0.276 1.338-0.482 2.037-0.614 0.272-0.050 0.533 0.127 0.584 0.399s-0.127 0.532-0.399 0.584c-0.63 0.119-1.246 0.305-1.833 0.553-0.063 0.027-0.129 0.040-0.194 0.040zM23.319 10.443c-0.144 0-0.287-0.062-0.385-0.181-0.407-0.492-0.869-0.941-1.372-1.337-0.216-0.171-0.254-0.486-0.084-0.703s0.485-0.253 0.703-0.084c0.558 0.44 1.070 0.939 1.523 1.486 0.176 0.213 0.146 0.528-0.066 0.704-0.093 0.078-0.206 0.116-0.319 0.116zM8.371 10.838c-0.104 0-0.209-0.033-0.298-0.098-0.221-0.165-0.268-0.478-0.103-0.7 0.423-0.569 0.908-1.095 1.442-1.563 0.207-0.182 0.523-0.162 0.706 0.046s0.161 0.524-0.046 0.706c-0.481 0.422-0.918 0.896-1.299 1.408-0.098 0.132-0.249 0.201-0.402 0.201zM6.553 15.498c-0.018 0-0.035-0.001-0.053-0.003-0.274-0.028-0.474-0.274-0.446-0.549 0.074-0.707 0.224-1.408 0.447-2.081 0.087-0.262 0.368-0.405 0.631-0.319s0.405 0.369 0.319 0.631c-0.199 0.606-0.335 1.236-0.402 1.873-0.027 0.257-0.244 0.447-0.497 0.447zM7.352 20.437c-0.189 0-0.371-0.108-0.455-0.293-0.295-0.646-0.52-1.325-0.67-2.020-0.059-0.27 0.113-0.536 0.383-0.595s0.536 0.113 0.595 0.383c0.136 0.625 0.338 1.235 0.603 1.817 0.114 0.252 0.003 0.548-0.247 0.663-0.067 0.031-0.138 0.045-0.207 0.045zM22.644 23.29c-0.13 0-0.259-0.050-0.358-0.151-0.193-0.197-0.189-0.514 0.008-0.707 0.457-0.447 0.868-0.944 1.22-1.477 0.152-0.231 0.462-0.294 0.693-0.141s0.294 0.462 0.141 0.693c-0.391 0.591-0.847 1.143-1.354 1.64-0.098 0.095-0.224 0.142-0.35 0.142zM10.55 24.282c-0.099 0-0.199-0.029-0.287-0.090-0.581-0.407-1.12-0.878-1.602-1.399-0.188-0.203-0.175-0.519 0.027-0.706 0.203-0.189 0.518-0.177 0.707 0.027 0.435 0.469 0.921 0.893 1.443 1.26 0.226 0.159 0.28 0.471 0.122 0.697-0.098 0.139-0.252 0.212-0.41 0.212zM18.274 25.726c-0.225 0-0.429-0.152-0.485-0.381-0.066-0.268 0.099-0.539 0.366-0.605 0.62-0.152 1.226-0.372 1.799-0.653 0.248-0.121 0.548-0.018 0.669 0.23 0.122 0.248 0.019 0.547-0.229 0.669-0.637 0.312-1.31 0.556-2 0.726-0.040 0.010-0.080 0.015-0.119 0.015zM15.26 25.971c-0.013 0-0.026-0-0.039-0.002-0.71-0.055-1.414-0.186-2.092-0.389-0.264-0.079-0.415-0.358-0.335-0.622s0.359-0.412 0.623-0.335c0.61 0.183 1.243 0.3 1.882 0.349 0.275 0.021 0.481 0.262 0.46 0.537-0.021 0.262-0.239 0.462-0.498 0.462z"></path>
<path d="M28 15.5c0-1.369-1.106-2.481-2.471-2.497-0.064-0.204-0.122-0.411-0.198-0.608-0.099-0.258-0.389-0.383-0.646-0.286-0.258 0.1-0.386 0.389-0.286 0.647 0.055 0.142 0.095 0.29 0.142 0.437-0.904 0.377-1.541 1.268-1.541 2.307 0 1.13 0.759 2.076 1.79 2.384-0.033 0.153-0.057 0.308-0.098 0.459-0.072 0.267 0.087 0.541 0.353 0.613 0.044 0.012 0.087 0.017 0.13 0.017 0.221 0 0.422-0.147 0.483-0.37 0.056-0.208 0.104-0.421 0.146-0.633 1.234-0.152 2.197-1.195 2.197-2.47z"></path>
</svg>
