<?xml version="1.0" encoding="utf-8"?>
<!-- Generated by IcoMoon.io -->
<!DOCTYPE svg PUBLIC "-//W3C//DTD SVG 1.1//EN" "http://www.w3.org/Graphics/SVG/1.1/DTD/svg11.dtd">
<svg version="1.1" xmlns="http://www.w3.org/2000/svg" width="32" height="32" viewBox="0 0 32 32">
<title>spa-moon-flag-2</title>
<path d="M26.031 5.010c-0.049-0.271-0.305-0.452-0.582-0.402l-4.369 0.802c-0.53 0.096-1.044-0.256-1.142-0.787-0.015-0.080-0.043-0.155-0.067-0.231l2.375 12.605c0.305 0.101 0.636 0.137 0.974 0.076l4.369-0.802c0.271-0.049 0.451-0.31 0.401-0.582l-1.96-10.679z"></path>
<path d="M24.979 27.096c-0.060 0.27-0.325 0.436-0.596 0.381-0.27-0.059-0.44-0.327-0.381-0.596-0.055-0.241-1.093-1.019-2.889-1.527-1.774-0.5-2.875-0.364-3.109-0.209 0.109 0.264 1.139 1.012 2.882 1.505 0.266 0.076 0.42 0.352 0.345 0.617-0.062 0.22-0.263 0.363-0.48 0.363-0.046 0-0.091-0.006-0.137-0.019-1.465-0.415-3.87-1.451-3.593-2.706 0.039-0.176 0.152-0.427 0.471-0.617 0.835-0.5 2.559-0.273 3.893 0.104 1.465 0.415 3.87 1.451 3.593 2.706zM10.697 26.15c-0.204 0.184-0.521 0.171-0.706-0.035-0.124-0.137-0.726-0.215-1.386 0.134-0.378 0.2-0.578 0.448-0.604 0.594 0.132 0.18 0.734 0.258 1.393-0.091 0.242-0.13 0.546-0.037 0.676 0.209 0.129 0.244 0.036 0.546-0.208 0.675-0.46 0.244-0.953 0.365-1.397 0.365-0.495 0-0.931-0.149-1.197-0.445-0.22-0.242-0.308-0.558-0.25-0.887 0.088-0.499 0.496-0.974 1.12-1.304 0.973-0.515 2.088-0.48 2.595 0.079 0.185 0.205 0.17 0.52-0.036 0.706zM29.909 28.212c-3.186-4.516-8.386-7.212-13.909-7.212-0.947 0-1.883 0.084-2.803 0.239l0.784 3.979c0.053 0.271-0.123 0.534-0.394 0.587-0.033 0.006-0.065 0.009-0.098 0.009-0.233 0-0.443-0.165-0.49-0.403l-1.798-9.076 8.572-1.64c0.532-0.094 1.044 0.255 1.142 0.787 0.018 0.101 0.051 0.195 0.084 0.289l-2.386-12.662c-0.313-0.104-0.647-0.138-0.98-0.077l-9.223 1.694c-0.131 0.024-0.248 0.1-0.323 0.21s-0.103 0.247-0.077 0.378l3.229 16.377c-3.655 1.067-6.902 3.337-9.148 6.52-0.159 0.226-0.105 0.538 0.12 0.697 0.085 0.061 0.183 0.090 0.28 0.091h27.009c0.099 0 0.2-0.030 0.288-0.091 0.226-0.159 0.28-0.471 0.12-0.697z"></path>
</svg>
