<?xml version="1.0" encoding="utf-8"?>
<!-- Generated by IcoMoon.io -->
<!DOCTYPE svg PUBLIC "-//W3C//DTD SVG 1.1//EN" "http://www.w3.org/Graphics/SVG/1.1/DTD/svg11.dtd">
<svg version="1.1" xmlns="http://www.w3.org/2000/svg" width="32" height="32" viewBox="0 0 32 32">
<title>spa-rocket</title>
<path d="M22.5 8c-0.827 0-1.5 0.673-1.5 1.5s0.673 1.5 1.5 1.5c0.827 0 1.5-0.673 1.5-1.5s-0.673-1.5-1.5-1.5z"></path>
<path d="M14 23.128v6.372c0 0.21 0.132 0.398 0.33 0.471 0.056 0.020 0.113 0.029 0.17 0.029 0.146 0 0.287-0.064 0.384-0.18l5-6c0.075-0.090 0.116-0.203 0.116-0.32v-3.747c-2.541 1.642-4.983 2.881-6 3.375z"></path>
<path d="M12.248 12h-3.748c-0.117 0-0.23 0.041-0.32 0.116l-6 5c-0.162 0.134-0.222 0.356-0.151 0.554s0.26 0.33 0.47 0.33h6.372c0.495-1.017 1.734-3.46 3.376-6z"></path>
<path d="M10.734 21.973l-1.88 1.881c-0.098 0.098-0.226 0.146-0.354 0.146s-0.255-0.049-0.354-0.146c-0.196-0.195-0.196-0.512 0-0.707l1.88-1.881-1.088-1.087c-0.056-0.056-0.107-0.116-0.152-0.178h-0.287c-5.905 0-6.478 9.085-6.499 9.472-0.008 0.142 0.045 0.281 0.146 0.381 0.094 0.094 0.221 0.146 0.353 0.146 0.010 0 0.018-0 0.028-0.001 0.386-0.021 9.472-0.594 9.472-6.499v-0.293c-0.062-0.046-0.123-0.092-0.178-0.147l-1.088-1.087z"></path>
<path d="M22.5 12c-1.378 0-2.5-1.121-2.5-2.5s1.122-2.5 2.5-2.5c1.378 0 2.5 1.121 2.5 2.5s-1.122 2.5-2.5 2.5zM28.566 3.434c-1.3-1.3-7.848 0.417-11.754 4.323-3.861 3.861-7.128 10.855-7.265 11.15-0.088 0.191-0.049 0.416 0.1 0.564l1.088 1.087 5.413-5.412c0.195-0.196 0.512-0.196 0.707 0s0.195 0.511 0 0.707l-5.412 5.412 1.088 1.087c0.096 0.096 0.223 0.146 0.354 0.146 0.071 0 0.143-0.015 0.21-0.047 0.296-0.137 7.29-3.404 11.15-7.265 3.907-3.906 5.622-10.454 4.323-11.754z"></path>
</svg>
