<?xml version="1.0" encoding="utf-8"?>
<!-- Generated by IcoMoon.io -->
<!DOCTYPE svg PUBLIC "-//W3C//DTD SVG 1.1//EN" "http://www.w3.org/Graphics/SVG/1.1/DTD/svg11.dtd">
<svg version="1.1" xmlns="http://www.w3.org/2000/svg" width="32" height="32" viewBox="0 0 32 32">
<title>spa-orbit-2</title>
<path d="M12.465 23.218c-0.066-0.268-0.338-0.434-0.605-0.366-0.309 0.076-0.593 0.113-0.862 0.131-0.009-1.089-0.893-1.972-1.982-1.981 0.017-0.249 0.050-0.511 0.116-0.794 0.063-0.269-0.104-0.538-0.373-0.601-0.269-0.064-0.538 0.105-0.601 0.373-0.105 0.45-0.158 0.875-0.158 1.264 0 0.012 0.002 0.022 0.002 0.034-0.596 0.346-1.002 0.985-1.002 1.723 0 1.103 0.897 2 2 2 0.738 0 1.376-0.406 1.723-1.002 0.014 0 0.026 0 0.040 0 0.41 0 0.86-0.059 1.337-0.177 0.268-0.066 0.432-0.337 0.366-0.605z"></path>
<path d="M19.752 18.759c-0.16 0.169-0.323 0.338-0.49 0.505-0.197 0.197-0.395 0.389-0.596 0.576-0.096 0.090-0.219 0.135-0.341 0.135-0.134 0-0.267-0.053-0.366-0.159-0.188-0.201-0.177-0.518 0.024-0.706 0.192-0.179 0.383-0.363 0.572-0.552 0.16-0.16 0.317-0.321 0.469-0.483 0.189-0.201 0.506-0.211 0.706-0.021s0.21 0.506 0.021 0.706zM22.362 14.411c-0.187-0.11-0.412-0.081-0.57 0.049-0.546-2.053-2.154-3.674-4.201-4.239 0.039-0.022 0.079-0.047 0.117-0.069 0.241-0.133 0.329-0.438 0.195-0.679s-0.438-0.329-0.68-0.194c-0.388 0.216-0.784 0.46-1.179 0.725-0.015 0-0.030-0.002-0.045-0.002-3.309 0-6 2.691-6 6 0 0.015 0.002 0.030 0.002 0.045-0.231 0.346-0.45 0.695-0.646 1.040-0.136 0.241-0.052 0.546 0.188 0.682 0.079 0.044 0.163 0.066 0.247 0.066 0.171 0 0.335-0.088 0.429-0.245 0.56 2.040 2.169 3.643 4.211 4.198-0.191 0.151-0.255 0.418-0.13 0.635 0.092 0.161 0.261 0.251 0.434 0.251 0.085 0 0.171-0.021 0.248-0.067 0.319-0.183 0.643-0.39 0.969-0.607 0.017 0 0.033 0.002 0.049 0.002 3.308 0 6-2.691 6-6 0-0.015-0.003-0.031-0.003-0.047 0.192-0.288 0.377-0.575 0.543-0.858 0.14-0.239 0.059-0.544-0.178-0.684z"></path>
<path d="M23.306 12.601c-0.043 0-0.085-0.005-0.128-0.017-0.267-0.070-0.426-0.345-0.355-0.611 0.117-0.445 0.177-0.854 0.177-1.216l-0.002-0.118c-0.011-0.277 0.205-0.508 0.481-0.518 0.275-0.021 0.508 0.204 0.518 0.48 0.002 0.052 0.003 0.104 0.003 0.156 0 0.448-0.070 0.944-0.21 1.473-0.059 0.224-0.262 0.372-0.483 0.372z"></path>
<path d="M20.245 9.112c-0.232 0-0.439-0.162-0.489-0.398-0.056-0.271 0.117-0.535 0.387-0.591 0.61-0.127 1.174-0.155 1.666-0.082 0.273 0.041 0.462 0.296 0.421 0.569s-0.299 0.459-0.568 0.421c-0.377-0.057-0.823-0.031-1.314 0.072-0.035 0.007-0.069 0.011-0.102 0.011z"></path>
<path d="M6.698 30c-0.582 0-1.109-0.064-1.586-0.192-0.267-0.071-0.426-0.345-0.354-0.611s0.345-0.425 0.612-0.354c0.394 0.105 0.836 0.158 1.315 0.158 0.276 0 0.521 0.224 0.521 0.5s-0.203 0.5-0.479 0.5v-0.5l-0.024 0.5h-0.004z"></path>
<path d="M9.672 29.497c-0.214 0-0.412-0.138-0.478-0.354-0.081-0.264 0.068-0.544 0.332-0.624 0.444-0.136 0.905-0.301 1.37-0.49 0.256-0.105 0.548 0.020 0.652 0.274 0.104 0.256-0.018 0.547-0.274 0.651-0.493 0.201-0.982 0.375-1.454 0.52-0.049 0.015-0.098 0.022-0.146 0.022z"></path>
<path d="M2.962 28.022c-0.183 0-0.36-0.101-0.447-0.276-0.235-0.468-0.391-1.006-0.465-1.595-0.034-0.274 0.16-0.524 0.434-0.558 0.271-0.032 0.524 0.16 0.558 0.434 0.059 0.477 0.183 0.904 0.366 1.272 0.123 0.247 0.023 0.547-0.224 0.671-0.071 0.035-0.148 0.052-0.223 0.052z"></path>
<path d="M13.778 27.674c-0.174 0-0.343-0.091-0.435-0.253-0.136-0.24-0.052-0.546 0.188-0.681 0.414-0.235 0.838-0.492 1.262-0.762 0.232-0.148 0.543-0.080 0.691 0.152s0.080 0.542-0.152 0.691c-0.438 0.28-0.878 0.546-1.306 0.788-0.078 0.044-0.163 0.066-0.246 0.066z"></path>
<path d="M17.514 25.17c-0.149 0-0.297-0.067-0.396-0.195-0.169-0.218-0.128-0.532 0.090-0.701 0.385-0.297 0.77-0.606 1.153-0.927 0.212-0.178 0.527-0.149 0.704 0.063 0.177 0.211 0.149 0.526-0.062 0.704-0.395 0.33-0.79 0.648-1.185 0.953-0.091 0.070-0.198 0.104-0.305 0.104z"></path>
<path d="M2.788 23.615c-0.039 0-0.079-0.005-0.118-0.014-0.268-0.064-0.434-0.334-0.369-0.603 0.115-0.479 0.265-0.979 0.445-1.486 0.092-0.26 0.378-0.396 0.639-0.304s0.397 0.378 0.304 0.638c-0.168 0.475-0.308 0.942-0.416 1.387-0.055 0.229-0.26 0.383-0.486 0.383z"></path>
<path d="M20.908 22.219c-0.13 0-0.26-0.051-0.358-0.151-0.192-0.198-0.188-0.514 0.010-0.707 0.134-0.131 0.269-0.264 0.404-0.398 0.217-0.217 0.43-0.436 0.64-0.654 0.191-0.2 0.508-0.206 0.707-0.016s0.206 0.508 0.016 0.707c-0.215 0.224-0.433 0.447-0.655 0.669-0.138 0.138-0.276 0.274-0.414 0.409-0.097 0.095-0.223 0.142-0.349 0.142z"></path>
<path d="M4.434 19.438c-0.079 0-0.158-0.018-0.232-0.058-0.244-0.129-0.338-0.431-0.209-0.676 0.23-0.435 0.483-0.883 0.751-1.331 0.142-0.238 0.449-0.314 0.686-0.172s0.314 0.45 0.171 0.686c-0.26 0.433-0.503 0.863-0.723 1.283-0.090 0.169-0.263 0.267-0.443 0.267z"></path>
<path d="M23.955 18.911c-0.112 0-0.224-0.037-0.317-0.113-0.213-0.175-0.244-0.491-0.069-0.704 0.318-0.387 0.624-0.775 0.916-1.162 0.166-0.22 0.48-0.265 0.701-0.097 0.22 0.166 0.264 0.48 0.098 0.701-0.301 0.398-0.615 0.796-0.942 1.194-0.099 0.12-0.242 0.183-0.387 0.183z"></path>
<path d="M6.838 15.638c-0.103 0-0.207-0.032-0.296-0.097-0.223-0.165-0.27-0.477-0.106-0.7 0.295-0.402 0.604-0.803 0.926-1.206 0.173-0.216 0.488-0.25 0.703-0.078s0.251 0.487 0.078 0.703c-0.313 0.391-0.614 0.783-0.902 1.174-0.098 0.133-0.25 0.204-0.403 0.204z"></path>
<path d="M26.586 15.263c-0.090 0-0.181-0.024-0.264-0.075-0.235-0.146-0.306-0.454-0.16-0.688 0.265-0.425 0.515-0.852 0.745-1.271 0.134-0.242 0.438-0.329 0.679-0.197s0.331 0.437 0.197 0.68c-0.239 0.434-0.499 0.877-0.773 1.316-0.095 0.152-0.258 0.236-0.425 0.236z"></path>
<path d="M9.718 12.183c-0.123 0-0.245-0.044-0.341-0.134-0.201-0.188-0.212-0.505-0.024-0.707 0.316-0.339 0.643-0.676 0.977-1.011l0.081-0.080c0.196-0.194 0.512-0.193 0.707 0.003s0.193 0.512-0.003 0.707l-0.075 0.075c-0.328 0.329-0.646 0.658-0.956 0.989-0.098 0.105-0.232 0.159-0.365 0.159z"></path>
<path d="M28.622 11.255c-0.060 0-0.12-0.011-0.18-0.033-0.258-0.1-0.387-0.389-0.287-0.646 0.181-0.471 0.335-0.934 0.459-1.377 0.074-0.266 0.351-0.423 0.616-0.348s0.422 0.35 0.348 0.616c-0.133 0.473-0.297 0.966-0.489 1.467-0.076 0.199-0.266 0.32-0.466 0.32z"></path>
<path d="M12.965 9.069c-0.141 0-0.28-0.059-0.38-0.175-0.18-0.21-0.156-0.525 0.054-0.705 0.389-0.335 0.781-0.657 1.172-0.966 0.216-0.171 0.531-0.136 0.703 0.082 0.171 0.216 0.135 0.53-0.082 0.702-0.382 0.302-0.762 0.616-1.143 0.941-0.094 0.081-0.21 0.12-0.325 0.12z"></path>
<path d="M29.493 6.873c-0.265 0-0.486-0.209-0.499-0.476-0.023-0.489-0.105-0.934-0.244-1.324-0.093-0.26 0.043-0.546 0.302-0.639 0.261-0.092 0.546 0.043 0.639 0.303 0.173 0.483 0.274 1.026 0.302 1.614 0.012 0.276-0.201 0.511-0.477 0.523-0.008 0-0.015 0-0.023 0z"></path>
<path d="M23.255 2.745c-0.072-0.266-0.346-0.425-0.613-0.353-0.355 0.096-0.726 0.217-1.101 0.349-0.367-0.448-0.918-0.74-1.541-0.74-1.103 0-2 0.897-2 2 0 0.231 0.047 0.45 0.12 0.657-0.157-0.117-0.375-0.135-0.553-0.029-0.427 0.252-0.862 0.524-1.293 0.808-0.23 0.152-0.294 0.462-0.142 0.692 0.096 0.146 0.256 0.225 0.418 0.225 0.095 0 0.19-0.027 0.275-0.082 0.416-0.275 0.837-0.538 1.251-0.782 0.155-0.092 0.235-0.256 0.237-0.425 0.355 0.561 0.976 0.936 1.687 0.936 1.102 0 2-0.897 2-2 0-0.119-0.015-0.235-0.035-0.349 0.32-0.11 0.635-0.212 0.938-0.293 0.267-0.072 0.424-0.347 0.352-0.614z"></path>
<path d="M27.199 3.319c-0.061 0-0.122-0.010-0.181-0.034-0.384-0.15-0.826-0.241-1.313-0.272-0.276-0.018-0.485-0.256-0.467-0.531s0.258-0.477 0.531-0.467c0.59 0.038 1.132 0.151 1.612 0.338 0.257 0.1 0.384 0.39 0.284 0.647-0.077 0.198-0.266 0.319-0.466 0.319z"></path>
</svg>
