<?xml version="1.0" encoding="utf-8"?>
<!-- Generated by IcoMoon.io -->
<!DOCTYPE svg PUBLIC "-//W3C//DTD SVG 1.1//EN" "http://www.w3.org/Graphics/SVG/1.1/DTD/svg11.dtd">
<svg version="1.1" xmlns="http://www.w3.org/2000/svg" width="32" height="32" viewBox="0 0 32 32">
<title>spa-telescope</title>
<path d="M15.029 9.18l-6.389 3.158c-0.12 0.059-0.211 0.164-0.253 0.291s-0.031 0.266 0.029 0.385l1.666 3.26c0.088 0.173 0.264 0.273 0.446 0.273 0.074 0 0.149-0.017 0.221-0.052l6.403-3.162-2.123-4.153z"></path>
<path d="M18.547 13.266c-0.182 0-0.358-0.1-0.446-0.273l-2.222-4.346c-0.061-0.12-0.072-0.258-0.030-0.385s0.133-0.232 0.253-0.291l9.953-4.919c0.245-0.121 0.543-0.022 0.667 0.221l2.223 4.351c0.061 0.119 0.072 0.258 0.029 0.385s-0.134 0.232-0.253 0.291l-9.954 4.915c-0.072 0.036-0.147 0.052-0.221 0.052z"></path>
<path d="M4.831 18.707l4.298-2.1-1.562-3.058-4.288 2.12-0.333-0.651c-0.126-0.245-0.427-0.342-0.673-0.217s-0.344 0.427-0.218 0.673l0.553 1.082c0.001 0.001 0 0.002 0.001 0.003s0.002 0.002 0.002 0.003l1.667 3.263c0.088 0.173 0.264 0.273 0.446 0.273 0.077 0 0.154-0.017 0.227-0.055 0.246-0.125 0.343-0.427 0.218-0.672l-0.338-0.661z"></path>
<path d="M21.951 29.285l-6.006-12.601c1.21-0.552 2.055-1.77 2.055-3.184v-0.573l-1 0.492v0.082c0 1.379-1.121 2.5-2.5 2.5-0.582 0-1.143-0.207-1.586-0.57l-0.957 0.471c0.315 0.33 0.69 0.593 1.101 0.78l-6.008 12.604c-0.119 0.25-0.013 0.548 0.237 0.666 0.069 0.034 0.143 0.049 0.215 0.049 0.186 0 0.366-0.105 0.452-0.285l6.048-12.689v12.474c0 0.276 0.224 0.5 0.5 0.5s0.5-0.224 0.5-0.5v-12.474l6.049 12.69c0.086 0.18 0.265 0.285 0.452 0.285 0.072 0 0.145-0.015 0.215-0.049 0.25-0.119 0.355-0.417 0.236-0.666z"></path>
</svg>
