<?xml version="1.0" encoding="utf-8"?>
<!-- Generated by IcoMoon.io -->
<!DOCTYPE svg PUBLIC "-//W3C//DTD SVG 1.1//EN" "http://www.w3.org/Graphics/SVG/1.1/DTD/svg11.dtd">
<svg version="1.1" xmlns="http://www.w3.org/2000/svg" width="32" height="32" viewBox="0 0 32 32">
<title>spa-dish</title>
<path d="M17.422 12.285l3.578-3.578v7.156l-3.578-3.578zM20.293 8l-3.578 3.578-3.578-3.578h7.156zM26.854 21.717l-4.854-4.854v-9.156l1.744-1.745c0.082 0.022 0.166 0.037 0.256 0.037 0.552 0 1-0.449 1-1s-0.448-1-1-1c-0.552 0-1 0.449-1 1 0 0.089 0.015 0.173 0.038 0.255l-1.744 1.745h-9.156l-4.854-4.854c-0.115-0.115-0.279-0.167-0.438-0.139-0.16 0.027-0.297 0.131-0.367 0.277-2.765 5.793-1.575 12.734 2.964 17.273 2.908 2.908 6.8 4.441 10.746 4.441 2.213 0 4.445-0.483 6.526-1.477 0.146-0.070 0.25-0.206 0.277-0.367s-0.024-0.323-0.14-0.438v0z"></path>
<path d="M17.222 24.726c-2.546-0.467-4.926-1.535-6.973-3.131l-3.21 7.712c-0.064 0.154-0.047 0.331 0.046 0.47s0.248 0.223 0.416 0.223h11.166c0.167 0 0.323-0.084 0.416-0.223s0.11-0.315 0.046-0.47l-1.907-4.581z"></path>
</svg>
