<?xml version="1.0" encoding="utf-8"?>
<!-- Generated by IcoMoon.io -->
<!DOCTYPE svg PUBLIC "-//W3C//DTD SVG 1.1//EN" "http://www.w3.org/Graphics/SVG/1.1/DTD/svg11.dtd">
<svg version="1.1" xmlns="http://www.w3.org/2000/svg" width="32" height="32" viewBox="0 0 32 32">
<title>spa-shuttle</title>
<path d="M11 14.5c0-2.229 0.325-9.5 4.5-9.5s4.5 7.271 4.5 9.5c0 0.98 0.383 1.75 1 2.506v-5.505c0-3.579-2.571-9.5-5.5-9.5s-5.5 5.921-5.5 9.5v5.505c0.617-0.756 1-1.526 1-2.505z"></path>
<path d="M8.22 18.803c0.277-0.256 0.534-0.497 0.78-0.734v-6.069h-3v9.078c0.702-0.867 1.495-1.604 2.22-2.275z"></path>
<path d="M21.983 11h2.784l-1.851-2.777c-0.093-0.139-0.249-0.223-0.416-0.223s-0.323 0.084-0.416 0.223l-0.425 0.637c0.175 0.758 0.285 1.486 0.324 2.14z"></path>
<path d="M25 21.078v-9.078h-3v6.069c0.247 0.236 2.299 2.142 3 3.009z"></path>
<path d="M9.341 8.86l-0.425-0.637c-0.185-0.279-0.646-0.279-0.832 0l-1.851 2.777h2.784c0.038-0.655 0.148-1.383 0.323-2.14z"></path>
<path d="M18.727 11c-0.366-2.354-1.224-5-3.227-5s-2.861 2.646-3.227 5h6.454z"></path>
<path d="M20.058 28c-0.035 0.162-0.058 0.328-0.058 0.5v1c0 0.276 0.224 0.5 0.5 0.5h4c0.276 0 0.5-0.224 0.5-0.5v-1c0-0.172-0.023-0.338-0.058-0.5h-4.884z"></path>
<path d="M24.487 27h1.013c0.276 0 0.5-0.224 0.5-0.5 0-3.355-2.072-5.272-3.899-6.963-0.797-0.738-1.541-1.428-2.101-2.185v9.648h4.487z"></path>
<path d="M13.058 28c-0.034 0.162-0.058 0.328-0.058 0.5v1c0 0.276 0.223 0.5 0.5 0.5h4c0.276 0 0.5-0.224 0.5-0.5v-1c0-0.172-0.023-0.338-0.058-0.5h-4.884z"></path>
<path d="M15.5 14.001c0.827 0 1.5 0.673 1.5 1.5 0 0.276-0.224 0.5-0.5 0.5s-0.5-0.224-0.5-0.5c0-0.275-0.224-0.5-0.5-0.5s-0.5 0.225-0.5 0.5c0 0.276-0.223 0.5-0.5 0.5s-0.5-0.224-0.5-0.5c0-0.827 0.673-1.5 1.5-1.5v0zM15.495 27c-0.274-0.003-0.495-0.224-0.495-0.499v-4c0-0.276 0.223-0.5 0.5-0.5s0.5 0.224 0.5 0.5v4c0 0.274-0.221 0.496-0.495 0.499h3.495v-12.5c0-0.283-0.011-1.282-0.142-2.5h-6.716c-0.131 1.218-0.142 2.217-0.142 2.5v12.5h3.495z"></path>
<path d="M5.5 27h5.5v-9.648c-0.56 0.757-1.303 1.447-2.101 2.185-1.827 1.692-3.899 3.608-3.899 6.963 0 0.276 0.223 0.5 0.5 0.5z"></path>
<path d="M6.058 28c-0.035 0.162-0.058 0.328-0.058 0.5v1c0 0.276 0.223 0.5 0.5 0.5h4c0.277 0 0.5-0.224 0.5-0.5v-1c0-0.172-0.024-0.338-0.058-0.5h-4.884z"></path>
</svg>
