<?xml version="1.0" encoding="utf-8"?>
<!-- Generated by IcoMoon.io -->
<!DOCTYPE svg PUBLIC "-//W3C//DTD SVG 1.1//EN" "http://www.w3.org/Graphics/SVG/1.1/DTD/svg11.dtd">
<svg version="1.1" xmlns="http://www.w3.org/2000/svg" width="32" height="32" viewBox="0 0 32 32">
<title>spa-space-walk</title>
<path d="M10.5 12h1.5v-5h-1.501c-1.202 0-2.499 0.957-2.499 2.5s1.297 2.5 2.5 2.5z"></path>
<path d="M22 22v1.5c0 1.203 0.956 2.5 2.5 2.5s2.5-1.297 2.5-2.5v-1.5h-5z"></path>
<path d="M10.038 24.67l-1.060 1.061c-0.424 0.423-0.689 1.020-0.729 1.637-0.046 0.709 0.213 1.384 0.729 1.899 0.48 0.48 1.080 0.734 1.736 0.734 0.013 0 0.026 0 0.039-0 0.653-0.010 1.312-0.285 1.762-0.735l1.056-1.063-3.531-3.532z"></path>
<path d="M9.33 23.963l-3.532-3.532-1.064 1.057c-0.449 0.448-0.723 1.105-0.734 1.757-0.010 0.673 0.243 1.288 0.734 1.779 1.092 1.091 2.684 0.85 3.535 0 0.388-0.388 0.739-0.738 1.061-1.061z"></path>
<path d="M22.371 5.157c0.323-0.019 1.852 0.019 4.008 2.175 2.303 2.303 2.457 4.176 2.462 4.255l0.015 0.211c0.758-0.842 1.165-1.928 1.144-3.088-0.022-1.236-0.524-2.406-1.413-3.295-1.782-1.782-4.597-1.878-6.389-0.265l0.173 0.008z"></path>
<path d="M16.207 15.5l2.293 2.293 2.293-2.293-2.293-2.293z"></path>
<path d="M21.854 15.854l-3 3c-0.098 0.098-0.226 0.146-0.354 0.146s-0.256-0.049-0.354-0.146l-3-3c-0.195-0.195-0.195-0.511 0-0.707l3-3c0.195-0.195 0.512-0.195 0.707 0l3 3c0.195 0.195 0.195 0.511 0 0.707zM27.912 12.636l-0.069-0.98c-0.001-0.012-0.159-1.604-2.172-3.617-1.956-1.956-3.233-1.883-3.245-1.883-0.020 0.002-0.050 0.003-0.071 0.002l-1.007-0.047c-0.542 0.751-0.996 1.675-1.212 2.641-0.917-0.706-2.613-1.751-4.636-1.752h-2.5v5h1.287l-7.779 7.726 3.529 3.529c1.555-1.558 2.189-2.203 2.446-2.504l0.029 0.029c0.189-0.189 0.518-0.189 0.707 0 0.095 0.095 0.146 0.22 0.146 0.354s-0.052 0.259-0.146 0.354l-2.475 2.475 3.53 3.529 7.726-7.779v1.287h5v-2.5c-0-2.027-1.048-3.724-1.753-4.638 0.976-0.219 1.909-0.678 2.664-1.226z"></path>
<path d="M20.627 5.404c-0.624-0.113-1.292 0.069-1.774 0.551l-0.261 0.261c-0.707-1.038-2.444-3.216-4.592-3.216-1.563 0-2.502 0.506-3.409 0.996-0.957 0.516-1.861 1.004-3.591 1.004-2.724 0-3.989-2.59-4.047-2.712-0.118-0.25-0.415-0.357-0.665-0.241s-0.358 0.415-0.241 0.665c0.063 0.134 1.578 3.288 4.953 3.288 1.982 0 3.088-0.597 4.066-1.124 0.871-0.47 1.624-0.876 2.934-0.876 1.384 0 2.642 1.298 3.381 2.253 0.849 0.224 1.599 0.574 2.227 0.938 0.277-0.653 0.628-1.261 1.020-1.787z"></path>
<path d="M26.817 14.404c0.23 0.396 0.453 0.84 0.642 1.329l0.587-0.586c0.378-0.378 0.586-0.88 0.586-1.414 0-0.123-0.014-0.242-0.035-0.36-0.506 0.38-1.11 0.744-1.779 1.031z"></path>
</svg>
