<?xml version="1.0" encoding="utf-8"?>
<!-- Generated by IcoMoon.io -->
<!DOCTYPE svg PUBLIC "-//W3C//DTD SVG 1.1//EN" "http://www.w3.org/Graphics/SVG/1.1/DTD/svg11.dtd">
<svg version="1.1" xmlns="http://www.w3.org/2000/svg" width="32" height="32" viewBox="0 0 32 32">
<title>spa-capsule-landing</title>
<path d="M8.068 27c0.445 1.813 3.315 3 7.433 3s6.988-1.187 7.433-3h-14.865z"></path>
<path d="M14 22.501c0 0.826 0.673 1.498 1.5 1.498s1.5-0.672 1.5-1.498c0-0.828-0.673-1.502-1.5-1.502s-1.5 0.674-1.5 1.502z"></path>
<path d="M26.423 5.672c-4.134 0.421-5.548 3.162-5.608 3.284l-0.344 0.571 1.888 1.799 0.57-0.336c0.017-0.010 0.034-0.019 0.052-0.027 0.126-0.057 2.989-1.395 3.441-5.291z"></path>
<path d="M18 22.501c0 1.378-1.122 2.498-2.5 2.498s-2.5-1.12-2.5-2.498c0-1.38 1.121-2.502 2.5-2.502s2.5 1.122 2.5 2.502zM27.465 4.92l-0.034 0.691c-0.44 4.45-3.646 6.079-4.017 6.252l-0.302 0.178 1.294 1.232-7.747 2.489 1.666-8.283 1.407 1.341 0.207-0.344c0.049-0.106 1.712-3.39 6.541-3.813l0.695-0.038c-2.345-2.176-6.112-2.161-8.438 0.050-0.483 0.463-0.878 1.001-1.173 1.595-0.014 0.028-0.018 0.058-0.027 0.087-0.004 0.013-0.012 0.024-0.015 0.037l-1.937 9.634c-0.057-0.002-0.114-0.005-0.171-0.003l-1.936-9.632c-0.002-0.013-0.011-0.024-0.015-0.037-0.008-0.029-0.013-0.059-0.027-0.087-0.295-0.593-0.69-1.131-1.175-1.596-2.313-2.198-6.053-2.221-8.401-0.077l0.659 0.068c4.829 0.422 6.494 3.708 6.564 3.853l0.184 0.306 1.409-1.342 1.665 8.283-7.747-2.489 1.314-1.252-0.313-0.155c-0.132-0.057-3.583-1.643-4.027-6.266l-0.054-0.658c-0.975 1.054-1.513 2.391-1.513 3.81 0.001 1.54 0.628 2.988 1.77 4.077 0.481 0.456 1.040 0.832 1.662 1.117 0.009 0.004 0.019 0.002 0.028 0.006s0.017 0.012 0.027 0.015l8.394 2.697c-0.003 0.003-0.006 0.006-0.009 0.009-0.117 0.116-0.229 0.256-0.335 0.419l-4.952 7.83c-0.268 0.426-0.425 0.764-0.509 1.075h14.847c-0.084-0.312-0.241-0.649-0.509-1.076l-4.953-7.829c-0.001-0.002-0.003-0.003-0.003-0.006-0.107-0.163-0.221-0.305-0.305-0.386-0.011-0.014-0.026-0.024-0.038-0.037l8.396-2.697c0.011-0.004 0.017-0.011 0.027-0.015s0.019-0.002 0.028-0.006c0.622-0.285 1.181-0.661 1.663-1.117 1.14-1.088 1.768-2.536 1.769-4.076 0-1.429-0.546-2.776-1.535-3.834z"></path>
<path d="M10.206 8.994c-0.080-0.158-1.496-2.902-5.63-3.322 0.444 3.893 3.316 5.234 3.444 5.292l0.659 0.325 1.849-1.761-0.322-0.534z"></path>
</svg>
