<?xml version="1.0" encoding="utf-8"?>
<!-- Generated by IcoMoon.io -->
<!DOCTYPE svg PUBLIC "-//W3C//DTD SVG 1.1//EN" "http://www.w3.org/Graphics/SVG/1.1/DTD/svg11.dtd">
<svg version="1.1" xmlns="http://www.w3.org/2000/svg" width="32" height="32" viewBox="0 0 32 32">
<title>spa-launch</title>
<path d="M16.854 2.147c-0.195-0.196-0.512-0.196-0.707 0-0.128 0.128-3.146 3.195-3.146 7.354 0 3.045 0.984 6.032 1.026 6.158 0.068 0.204 0.259 0.342 0.475 0.342h1.5v-5.501c0-0.277 0.224-0.5 0.5-0.5s0.5 0.223 0.5 0.5v5.501h1.5c0.215 0 0.406-0.137 0.474-0.342 0.041-0.126 1.026-3.113 1.026-6.159 0-4.159-3.018-7.225-3.146-7.354z"></path>
<path d="M22.852 13.145l-1.941-1.918c-0.241 2.438-0.898 4.477-0.987 4.748-0.003 0.009-0.008 0.018-0.011 0.026h2.587c0.276 0 0.5-0.223 0.5-0.5v-2c0-0.134-0.053-0.262-0.148-0.355z"></path>
<path d="M13.077 15.976c-0.090-0.272-0.746-2.312-0.988-4.75l-1.941 1.919c-0.095 0.094-0.149 0.222-0.149 0.355v2c0 0.277 0.223 0.5 0.5 0.5h2.588c-0.003-0.008-0.008-0.016-0.011-0.024z"></path>
<path d="M23.246 25.986c-0.041 0.011-0.081 0.015-0.122 0.015-0.223 0-0.426-0.15-0.483-0.375-0.020-0.073-0.461-1.625-2.516-1.625-0.276 0-0.5-0.224-0.5-0.5s0.224-0.5 0.5-0.5c2.287 0 3.279 1.556 3.485 2.379 0.067 0.267-0.096 0.539-0.363 0.606zM15.599 23.659c-0.088 0.262-0.37 0.404-0.633 0.316-0.998-0.332-1.333 0.579-1.367 0.684-0.050 0.148-0.165 0.264-0.312 0.315-0.148 0.049-0.31 0.029-0.44-0.058-0.046-0.029-1.175-0.756-1.87-0.063-0.736 0.737-0.409 1.416-0.406 1.423 0.123 0.247 0.024 0.547-0.223 0.671-0.072 0.035-0.149 0.052-0.223 0.052-0.184 0-0.36-0.101-0.447-0.276-0.027-0.055-0.647-1.337 0.594-2.578 0.809-0.808 1.902-0.64 2.637-0.326 0.424-0.634 1.236-1.174 2.374-0.794 0.262 0.087 0.403 0.37 0.316 0.633zM30.975 26.503c-0.006-0.056-0.017-0.111-0.024-0.168-0.014-0.105-0.027-0.212-0.048-0.315-0.014-0.066-0.032-0.13-0.047-0.195-0.022-0.090-0.043-0.181-0.070-0.27-0.021-0.070-0.047-0.137-0.072-0.206-0.028-0.081-0.055-0.162-0.088-0.241-0.029-0.072-0.063-0.14-0.096-0.21-0.034-0.073-0.067-0.145-0.104-0.215s-0.079-0.14-0.12-0.209c-0.038-0.064-0.076-0.129-0.116-0.192-0.046-0.071-0.095-0.139-0.145-0.207-0.041-0.056-0.082-0.113-0.125-0.168-0.055-0.070-0.113-0.137-0.171-0.203-0.043-0.049-0.086-0.096-0.131-0.143-0.064-0.067-0.13-0.133-0.198-0.196-0.044-0.041-0.088-0.081-0.133-0.121-0.073-0.064-0.148-0.126-0.225-0.186-0.043-0.034-0.087-0.067-0.131-0.099-0.083-0.060-0.167-0.118-0.253-0.173-0.042-0.026-0.084-0.052-0.128-0.078-0.092-0.055-0.186-0.108-0.282-0.157-0.039-0.020-0.079-0.038-0.119-0.058-0.102-0.049-0.206-0.096-0.312-0.139-0.035-0.014-0.071-0.026-0.107-0.038-0.113-0.042-0.227-0.082-0.343-0.116-0.029-0.009-0.059-0.015-0.088-0.023-0.125-0.034-0.25-0.064-0.378-0.088-0.020-0.004-0.041-0.006-0.061-0.009-0.139-0.024-0.279-0.045-0.421-0.058-0.145-0.013-0.291-0.023-0.44-0.023-0.492 0-0.978 0.072-1.445 0.212-0.265 0.077-0.544-0.070-0.623-0.335s0.070-0.544 0.334-0.623c0.561-0.169 1.144-0.254 1.733-0.254 0.027 0 0.053 0.004 0.079 0.004-0.628-1.192-1.889-2.004-3.329-2.004-0.161 0-0.32 0.015-0.479 0.035 0.477 0.697 0.838 1.486 1.042 2.351 0.064 0.268-0.103 0.538-0.372 0.602-0.269 0.061-0.538-0.103-0.602-0.372-0.203-0.859-0.582-1.636-1.094-2.297-0.003 0.002-0.007 0.002-0.010 0.003-0.834-1.069-2.015-1.838-3.349-2.158-0.006-0.002-0.013-0.003-0.020-0.004-0.193-0.046-0.39-0.079-0.59-0.105-0.044-0.006-0.088-0.012-0.133-0.017-0.212-0.023-0.427-0.038-0.645-0.038-0.174 0-0.346 0.011-0.517 0.026-0.053 0.005-0.107 0.011-0.161 0.017-0.12 0.014-0.239 0.032-0.356 0.052-0.057 0.010-0.114 0.019-0.169 0.030-0.148 0.030-0.294 0.066-0.438 0.108-0.065 0.018-0.128 0.041-0.192 0.062-0.096 0.031-0.191 0.064-0.286 0.099-0.078 0.030-0.155 0.062-0.231 0.095-0.068 0.029-0.134 0.060-0.201 0.091-0.084 0.040-0.167 0.079-0.248 0.123-0.026 0.014-0.051 0.029-0.077 0.044-0.191 0.106-0.376 0.222-0.555 0.347-0.030 0.021-0.060 0.042-0.091 0.064-0.092 0.068-0.183 0.138-0.271 0.211-0.023 0.018-0.046 0.038-0.069 0.058-0.285 0.241-0.548 0.508-0.784 0.797-0.014 0.017-0.029 0.035-0.043 0.052-0.075 0.095-0.148 0.191-0.217 0.29-0.014 0.020-0.027 0.040-0.041 0.060-0.145 0.21-0.277 0.43-0.395 0.658h-0.001c-0.352 0.686-0.579 1.447-0.64 2.255-0.020 0.262-0.239 0.462-0.498 0.462-0.012 0-0.025-0-0.038-0.002-0.275-0.021-0.482-0.261-0.461-0.537 0.066-0.858 0.292-1.671 0.641-2.413-0.218-0.029-0.438-0.049-0.662-0.049-2.040 0-3.807 1.222-4.58 3.005 0.027-0.001 0.053-0.005 0.080-0.005 0.737 0 1.457 0.203 2.082 0.584 0.236 0.144 0.31 0.452 0.166 0.688s-0.452 0.311-0.688 0.166c-0.468-0.286-1.008-0.438-1.561-0.438-0.138 0-0.271 0.012-0.404 0.030-0.724 0.099-1.367 0.456-1.832 0.976-0.008 0.009-0.016 0.017-0.024 0.026-0.106 0.122-0.202 0.252-0.287 0.389-0.010 0.017-0.021 0.034-0.031 0.052-0.081 0.136-0.152 0.278-0.211 0.427-0.008 0.020-0.015 0.041-0.022 0.061-0.056 0.151-0.102 0.306-0.134 0.468-0.003 0.017-0.005 0.034-0.007 0.050-0.030 0.169-0.048 0.343-0.048 0.52 0 1.654 1.346 3 3 3h23c1.654 0 3-1.346 3-3 0-0.168-0.009-0.334-0.025-0.497z"></path>
</svg>
