<?xml version="1.0" encoding="utf-8"?>
<!-- Generated by IcoMoon.io -->
<!DOCTYPE svg PUBLIC "-//W3C//DTD SVG 1.1//EN" "http://www.w3.org/Graphics/SVG/1.1/DTD/svg11.dtd">
<svg version="1.1" xmlns="http://www.w3.org/2000/svg" width="32" height="32" viewBox="0 0 32 32">
<title>spa-observatory</title>
<path d="M28 22.5v-2c0-0.276-0.224-0.5-0.5-0.5h-24c-0.276 0-0.5 0.224-0.5 0.5v2c0 0.276 0.224 0.5 0.5 0.5h24c0.276 0 0.5-0.224 0.5-0.5z"></path>
<path d="M4 24v5.5c0 0.276 0.223 0.5 0.5 0.5h22c0.276 0 0.5-0.224 0.5-0.5v-5.5h-23z"></path>
<path d="M15.5 14c-1.379 0-2.5-1.121-2.5-2.5s1.121-2.5 2.5-2.5c1.379 0 2.5 1.121 2.5 2.5s-1.122 2.5-2.5 2.5z"></path>
<path d="M13 19v-15.5c0-0.276-0.223-0.5-0.5-0.5h-2c-0.827 0-1.5 0.673-1.5 1.5v14.5h4z"></path>
<path d="M8 19v-12.966c-2.527 2.171-4 5.33-4 8.716v4.25h4z"></path>
<path d="M22 19v-14.5c0-0.827-0.673-1.5-1.5-1.5h-2c-0.276 0-0.5 0.224-0.5 0.5v15.5h4z"></path>
<path d="M27 19v-4.25c0-3.386-1.473-6.545-4-8.716v12.966h4z"></path>
</svg>
