<?xml version="1.0" encoding="utf-8"?>
<!-- Generated by IcoMoon.io -->
<!DOCTYPE svg PUBLIC "-//W3C//DTD SVG 1.1//EN" "http://www.w3.org/Graphics/SVG/1.1/DTD/svg11.dtd">
<svg version="1.1" xmlns="http://www.w3.org/2000/svg" width="32" height="32" viewBox="0 0 32 32">
<title>spa-shuttle-2</title>
<path d="M28.52 8.123c1.264-1.916 2.022-4.003 0.691-5.334-1.011-1.012-2.572-0.918-4.64 0.275-0.23 0.133-0.459 0.275-0.686 0.424l4.636 4.635z"></path>
<path d="M24.307 10.854c-0.098 0.098-0.226 0.146-0.354 0.146s-0.256-0.049-0.354-0.146c-0.195-0.195-0.195-0.512 0-0.707 0.503-0.502 0.535-1.351 0.070-1.816-0.226-0.225-0.544-0.338-0.89-0.329-0.349 0.014-0.687 0.159-0.927 0.399-0.195 0.195-0.512 0.195-0.707 0s-0.195-0.512 0-0.707c0.416-0.417 0.998-0.669 1.596-0.692 0.625-0.025 1.209 0.197 1.634 0.622 0.856 0.856 0.824 2.335-0.070 3.231v0zM23.056 4.072c-1.22 0.905-2.286 1.909-2.909 2.532l-0.753 0.752c0 0-0 0-0.001 0.001-2.020 2.020-4.582 1.95-7.297 1.877-2.989-0.081-6.381-0.174-9.27 2.716-0.094 0.094-0.147 0.222-0.147 0.354s0.054 0.261 0.148 0.354l4.897 4.863 4.891-4.892c0.61-0.61 1.603-0.61 2.213 0l4.544 4.544c0.611 0.61 0.611 1.602 0 2.213l-4.867 4.867 5.643 5.604c0.097 0.096 0.224 0.145 0.352 0.145s0.256-0.049 0.354-0.146c2.902-2.903 2.577-6.493 2.29-9.661-0.261-2.869-0.506-5.579 1.5-7.585 0-0.001 0-0.001 0.001-0.002l0.752-0.752c0.688-0.688 1.668-1.733 2.539-2.902l-4.88-4.88z"></path>
<path d="M18.665 17.878l-4.543-4.543c-0.22-0.219-0.579-0.22-0.799 0.001l-4.872 4.872 2.319 2.317 4.377-4.378c0.195-0.195 0.511-0.195 0.707 0s0.195 0.512 0 0.707l-4.377 4.377 2.319 2.317 4.87-4.869c0.22-0.221 0.22-0.578 0-0.799z"></path>
<path d="M8.374 19.544c-0.63 0.233-1.222 0.614-1.702 1.096l-0.518 0.5c-0.097 0.093-0.152 0.221-0.153 0.355s0.051 0.264 0.146 0.358l4 4c0.094 0.094 0.221 0.146 0.354 0.146h0.005c0.134-0.001 0.262-0.056 0.355-0.153l0.497-0.514c0.482-0.483 0.864-1.076 1.098-1.706l-4.082-4.081z"></path>
</svg>
