<?xml version="1.0" encoding="utf-8"?>
<!-- Generated by IcoMoon.io -->
<!DOCTYPE svg PUBLIC "-//W3C//DTD SVG 1.1//EN" "http://www.w3.org/Graphics/SVG/1.1/DTD/svg11.dtd">
<svg version="1.1" xmlns="http://www.w3.org/2000/svg" width="32" height="32" viewBox="0 0 32 32">
<title>spa-capsule-rocket</title>
<path d="M25 6c-0.552 0-1 0.447-1 0.997 0 0.553 0.448 1.003 1 1.003s1-0.45 1-1.003c0-0.55-0.449-0.997-1-0.997z"></path>
<path d="M25 9c-1.103 0-2-0.899-2-2.003 0-1.101 0.897-1.997 2-1.997s2 0.896 2 1.997c0 1.104-0.897 2.003-2 2.003zM29.996 3.832c-0.020-0.477-0.215-0.926-0.559-1.277-0.351-0.342-0.81-0.538-1.296-0.551-0.016-0.002-0.032-0.002-0.047-0.002-0.165 0.006-0.32 0.018-0.453 0.053l-10.477 2.402 10.382 10.382 2.401-10.479c0.038-0.16 0.055-0.309 0.052-0.421 0.003-0.034 0.002-0.071-0.003-0.106z"></path>
<path d="M16.341 5.048l-10.482 10.482c-0.196 0.195-0.196 0.511 0 0.707l9.905 9.905c0.098 0.098 0.226 0.146 0.353 0.146s0.256-0.049 0.354-0.146l10.482-10.482-10.611-10.611z"></path>
<path d="M3.374 22.081l-1.228 1.227c-0.196 0.195-0.196 0.512 0 0.707l5.838 5.838c0.094 0.093 0.22 0.146 0.354 0.146h0.001c0.132 0 0.259-0.053 0.354-0.147l1.226-1.229-6.543-6.544z"></path>
<path d="M11.519 20.478c-0.015-0.016-0.047-0.047-0.092-0.088l0.181 0.181c-0.042-0.046-0.073-0.077-0.089-0.093z"></path>
<path d="M7.583 19.374c-1.159 0.235-2.335 0.906-3.494 2.008l6.528 6.529c1.104-1.16 1.774-2.33 2.008-3.494l-5.043-5.043z"></path>
</svg>
