<?xml version="1.0" encoding="utf-8"?>
<!-- Generated by IcoMoon.io -->
<!DOCTYPE svg PUBLIC "-//W3C//DTD SVG 1.1//EN" "http://www.w3.org/Graphics/SVG/1.1/DTD/svg11.dtd">
<svg version="1.1" xmlns="http://www.w3.org/2000/svg" width="32" height="32" viewBox="0 0 32 32">
<title>spa-rocket-orbit</title>
<path d="M6.424 23.896c-1.067 0.753-1.798 1.010-2.292 1.032-0.223 0.009-0.404-0.032-0.562-0.119-0.024-0.014-0.050-0.024-0.072-0.040-0.044-0.029-0.086-0.064-0.126-0.102-0.008-0.008-0.018-0.013-0.025-0.020-0.538-0.538-0.45-2.019 0.236-3.963 0.091-0.26-0.045-0.546-0.305-0.637-0.261-0.093-0.546 0.044-0.638 0.305-0.595 1.688-1.078 3.925 0 5.003 0.099 0.1 0.207 0.186 0.32 0.259 0.083 0.055 0.174 0.098 0.264 0.14 0.023 0.010 0.045 0.024 0.068 0.034 0.292 0.124 0.615 0.19 0.978 0.19 0.846 0 1.891-0.328 3.13-0.913-0.348-0.369-0.674-0.759-0.975-1.169z"></path>
<path d="M19 19.293l1-1v-2.147c-1.019 0.716-2 1.224-2.628 1.518l1.628 1.628z"></path>
<path d="M14.707 13l-1 1 1.628 1.629c0.295-0.63 0.803-1.61 1.519-2.629h-2.147z"></path>
<path d="M18.998 11.978c-1.38 1.38-2.319 3.145-2.755 4.072l2.903-2.903c0.195-0.196 0.512-0.196 0.707 0s0.195 0.511 0 0.707l-2.901 2.9c0.928-0.437 2.695-1.377 4.070-2.752 1.913-1.913 2.025-3.404 1.972-3.997-0.587-0.053-2.081 0.057-3.997 1.973z"></path>
<path d="M21.73 14.709c-0.235 0.236-0.48 0.457-0.73 0.666v3.125c0 0.133-0.053 0.26-0.146 0.354l-1.5 1.5c-0.098 0.098-0.226 0.146-0.354 0.146s-0.256-0.049-0.354-0.146l-2.499-2.499c-0-0-0.001-0-0.002-0.001l-1-1c-0.001-0-0.001-0.002-0.002-0.002l-2.498-2.498c-0.195-0.195-0.195-0.511 0-0.707l1.5-1.5c0.094-0.094 0.22-0.146 0.354-0.146h3.125c0.21-0.248 0.431-0.494 0.666-0.729 2.916-2.916 5.197-2.201 5.291-2.169 0.149 0.050 0.267 0.167 0.316 0.316 0.032 0.095 0.747 2.374-2.169 5.291zM16.5 4c-6.904 0-12.5 5.596-12.5 12.5 0 2.768 0.902 5.325 2.424 7.396 1.484-1.046 3.62-3.048 6.692-6.717 0.178-0.212 0.494-0.239 0.704-0.063s0.239 0.493 0.063 0.704c-1.873 2.235-3.513 3.993-4.941 5.297 1.922-1.11 4.115-2.581 6.278-4.033 0.229-0.155 0.54-0.093 0.694 0.137s0.093 0.54-0.136 0.694c-3.42 2.296-6.204 4.122-8.38 5.149-0.348-0.369-0.673-0.759-0.974-1.168 2.275 3.095 5.94 5.104 10.076 5.104 6.904 0 12.5-5.596 12.5-12.5s-5.596-12.5-12.5-12.5z"></path>
</svg>
