<?xml version="1.0" encoding="utf-8"?>
<!-- Generated by IcoMoon.io -->
<!DOCTYPE svg PUBLIC "-//W3C//DTD SVG 1.1//EN" "http://www.w3.org/Graphics/SVG/1.1/DTD/svg11.dtd">
<svg version="1.1" xmlns="http://www.w3.org/2000/svg" width="32" height="32" viewBox="0 0 32 32">
<title>stop-watch</title>
<path d="M16 18.908v1.593h-1v-1.593c-0.581-0.207-1-0.757-1-1.407s0.419-1.201 1-1.408v-7.092h1v7.092c0.581 0.207 1 0.757 1 1.408s-0.419 1.2-1 1.407zM16.5 6.046v-2.546h-2v2.546c-5.875 0.509-10.5 5.45-10.5 11.454 0 6.341 5.159 11.5 11.5 11.5s11.5-5.159 11.5-11.5c0-6.004-4.626-10.945-10.5-11.454z"></path>
<path d="M26.707 7.914l-2.122-2.121-1.061 1.061 0.707 0.707-0.707 0.707 0.707 0.707 0.707-0.707 0.707 0.707z"></path>
</svg>
