<?xml version="1.0" encoding="utf-8"?>
<!-- Generated by IcoMoon.io -->
<!DOCTYPE svg PUBLIC "-//W3C//DTD SVG 1.1//EN" "http://www.w3.org/Graphics/SVG/1.1/DTD/svg11.dtd">
<svg version="1.1" xmlns="http://www.w3.org/2000/svg" width="32" height="32" viewBox="0 0 32 32">
<title>timer</title>
<path d="M9.151 10.151l7.409 5.288c0.284 0.283 0.439 0.66 0.439 1.061s-0.156 0.778-0.439 1.061c-0.283 0.283-0.66 0.439-1.060 0.439s-0.777-0.156-1.061-0.439l-0.053-0.064-5.235-7.346zM15.5 29c-6.893 0-12.5-5.607-12.5-12.5 0-3.339 1.3-6.478 3.661-8.839l0.707 0.707c-2.172 2.172-3.368 5.060-3.368 8.132 0 6.341 5.159 11.5 11.5 11.5s11.5-5.159 11.5-11.5c0-6.173-4.89-11.226-11-11.489v4.989h-1v-6h0.5c6.892 0 12.5 5.607 12.5 12.5s-5.608 12.5-12.5 12.5v0zM15.5 3c-7.456 0-13.5 6.044-13.5 13.5s6.044 13.5 13.5 13.5c7.456 0 13.5-6.044 13.5-13.5s-6.044-13.5-13.5-13.5v0z"></path>
</svg>
