<?xml version="1.0" encoding="utf-8"?>
<!-- Generated by IcoMoon.io -->
<!DOCTYPE svg PUBLIC "-//W3C//DTD SVG 1.1//EN" "http://www.w3.org/Graphics/SVG/1.1/DTD/svg11.dtd">
<svg version="1.1" xmlns="http://www.w3.org/2000/svg" width="32" height="32" viewBox="0 0 32 32">
<title>top-charts</title>
<path d="M6.909 10.082l-1.909-1.399-1.909 1.399 0.757-2.269-1.873-1.376h2.289l0.737-2.205 0.733 2.205h2.291l-1.873 1.376z"></path>
<path d="M6.909 19.082l-1.909-1.399-1.909 1.399 0.757-2.27-1.873-1.376h2.289l0.737-2.205 0.733 2.205h2.291l-1.873 1.376z"></path>
<path d="M6.909 28.082l-1.909-1.399-1.909 1.399 0.757-2.27-1.873-1.376h2.289l0.737-2.205 0.733 2.205h2.291l-1.873 1.376z"></path>
<path d="M10 26h19v-1h-19z"></path>
<path d="M10 17h19v-1h-19z"></path>
<path d="M10 8h19v-1h-19z"></path>
</svg>
